{"glyphs":{"0":{"ha":845,"x_min":23,"x_max":822,"o":"m 422 924 q 578 893 505 924 q 705 806 651 861 q 791 679 759 752 q 822 524 822 606 l 822 400 q 791 244 822 318 q 705 117 759 171 q 578 31 651 63 q 422 0 505 0 q 267 31 340 0 q 140 117 194 63 q 55 244 86 171 q 23 400 23 318 l 23 524 q 55 679 23 606 q 140 806 86 752 q 267 893 194 861 q 422 924 340 924 m 422 719 q 347 704 382 719 q 284 662 311 689 q 242 600 257 635 q 227 524 227 565 l 227 400 q 242 324 227 359 q 284 261 257 288 q 347 219 311 234 q 422 204 382 204 q 499 219 463 204 q 561 261 534 234 q 603 324 588 288 q 619 400 619 359 l 619 524 q 603 600 619 565 q 561 662 588 635 q 499 704 534 689 q 422 719 463 719 z "},"1":{"ha":388,"x_min":23,"x_max":365,"o":"m 23 423 l 23 676 l 160 775 l 365 924 l 365 671 l 365 0 l 160 0 l 160 523 l 23 423 z "},"2":{"ha":905,"x_min":23,"x_max":881,"o":"m 23 5 l 226 187 l 246 204 l 391 332 l 637 553 q 679 628 679 582 q 651 693 679 667 q 586 720 625 720 l 319 720 q 254 693 281 720 q 226 628 226 667 l 226 624 l 23 624 l 23 628 q 80 802 23 726 q 226 909 137 879 q 271 920 248 917 q 319 924 294 924 l 586 924 q 795 837 709 924 q 881 628 881 750 q 851 496 881 556 q 767 394 819 437 l 553 204 l 881 204 l 881 0 l 23 0 l 23 5 z "},"3":{"ha":906,"x_min":23,"x_max":882,"o":"m 227 913 q 305 924 265 924 l 601 924 q 710 902 659 924 q 800 841 761 880 q 860 751 838 803 q 882 642 882 700 q 871 564 882 602 q 817 462 855 507 q 871 360 854 418 q 882 281 882 323 q 860 172 882 223 q 800 83 838 121 q 710 22 761 44 q 601 0 659 0 l 305 0 q 227 11 265 0 q 145 50 182 24 q 81 111 108 75 q 38 190 54 146 q 23 281 23 233 l 23 299 l 227 299 l 227 281 q 250 226 227 249 q 305 204 273 204 l 601 204 q 656 226 633 204 q 679 281 679 249 q 656 337 679 314 q 601 360 633 359 l 385 360 l 385 462 l 385 564 l 601 564 q 656 587 633 564 q 679 642 679 609 q 656 697 679 674 q 601 719 633 719 l 305 719 q 250 697 273 719 q 227 642 227 674 l 227 625 l 23 625 l 23 642 q 38 733 23 690 q 81 813 54 777 q 145 874 108 848 q 227 913 182 900 z "},"4":{"ha":906,"x_min":23,"x_max":883,"o":"m 431 364 l 597 364 l 597 585 l 431 364 m 883 364 l 883 160 l 801 160 l 801 0 l 597 0 l 597 160 l 278 160 l 23 160 l 23 161 l 176 364 l 597 924 l 801 924 l 801 364 l 883 364 z "},"5":{"ha":854,"x_min":23,"x_max":831,"o":"m 81 720 l 122 924 l 785 924 l 785 720 l 289 720 l 270 625 l 518 625 q 697 569 619 625 q 811 422 777 511 q 831 312 831 369 q 811 204 831 256 q 697 56 777 114 q 518 0 619 0 l 336 0 q 227 19 280 0 q 59 166 116 63 q 51 184 55 175 q 43 204 47 194 q 23 299 26 248 l 228 299 q 265 231 235 257 q 336 204 294 204 l 518 204 q 594 235 563 204 q 627 312 627 268 q 594 389 627 356 q 518 422 563 422 l 23 422 l 81 720 z "},"6":{"ha":854,"x_min":23,"x_max":831,"o":"m 336 421 q 294 413 314 421 q 259 389 274 404 q 236 354 244 374 q 227 312 227 334 q 236 270 227 290 q 259 236 244 250 q 294 213 274 221 q 336 204 314 204 l 518 204 q 560 213 540 204 q 594 236 580 221 q 618 270 609 250 q 626 312 626 290 q 618 354 626 334 q 594 389 609 374 q 560 413 580 404 q 518 421 540 421 l 336 421 m 274 719 q 241 706 255 719 q 227 672 227 692 l 227 625 l 227 606 q 336 625 279 625 l 518 625 q 613 610 568 625 q 698 568 659 594 q 765 503 736 541 q 811 421 794 466 q 825 369 820 396 q 831 312 831 342 q 825 256 831 283 q 811 204 820 230 q 765 122 794 159 q 698 57 736 84 q 613 15 659 31 q 518 0 568 0 l 336 0 q 227 19 279 0 q 115 92 163 44 q 43 204 67 140 q 23 312 23 256 l 23 421 l 23 625 l 23 672 q 25 697 23 685 q 28 719 26 708 q 59 805 37 769 q 114 867 81 842 q 187 906 146 892 q 274 924 228 919 l 784 924 l 784 719 l 626 719 l 274 719 z "},"7":{"ha":892,"x_min":23,"x_max":869,"o":"m 736 719 l 267 0 l 23 0 l 493 719 l 23 719 l 23 924 l 625 924 l 869 924 l 736 719 z "},"8":{"ha":906,"x_min":23,"x_max":882,"o":"m 871 360 q 882 281 882 323 q 860 172 882 223 q 800 83 838 121 q 710 22 761 44 q 601 0 659 0 l 305 0 q 227 11 265 0 q 145 50 182 24 q 81 111 108 75 q 38 190 54 146 q 23 281 23 233 q 34 360 23 323 q 98 473 53 425 q 72 516 83 494 q 54 564 61 539 q 43 642 43 602 q 56 729 43 687 q 94 805 70 770 q 153 865 119 839 q 227 906 187 892 q 324 924 275 924 l 581 924 q 691 902 640 924 q 781 841 743 880 q 842 751 819 803 q 864 642 864 700 q 861 602 864 621 q 853 564 857 582 q 834 516 845 539 q 807 473 822 494 q 871 360 853 425 m 305 360 q 275 354 289 360 q 250 338 260 348 q 233 313 239 327 q 227 281 227 298 q 250 226 227 249 q 305 204 272 204 l 601 204 q 656 226 633 204 q 679 281 679 249 q 673 313 679 298 q 656 338 667 327 q 631 354 645 348 q 601 360 617 360 l 581 360 l 324 360 l 305 360 m 581 564 q 637 587 614 564 q 659 642 659 609 q 653 672 659 658 q 637 697 647 686 q 612 713 626 707 q 581 719 597 719 l 324 719 q 294 713 308 719 q 269 697 280 707 q 252 672 258 686 q 246 642 246 658 q 269 587 246 609 q 324 564 292 564 l 581 564 z "},"9":{"ha":853,"x_min":23,"x_max":830,"o":"m 518 502 q 560 511 540 502 q 594 534 580 519 q 617 569 608 549 q 626 611 626 589 q 617 653 626 633 q 594 688 608 673 q 560 711 580 703 q 518 719 540 719 l 335 719 q 293 711 313 719 q 259 688 273 703 q 236 653 244 673 q 227 611 227 633 q 236 569 227 589 q 259 534 244 549 q 293 511 273 519 q 335 502 313 502 l 518 502 m 579 204 q 612 218 598 204 q 626 251 626 231 l 626 298 l 626 318 q 574 303 601 308 q 518 298 546 298 l 335 298 q 239 313 285 298 q 156 356 194 329 q 88 420 118 382 q 43 502 59 457 q 23 611 23 554 q 43 719 23 669 q 88 802 59 764 q 156 867 118 840 q 239 909 194 894 q 335 924 285 924 l 518 924 q 574 919 546 924 q 626 904 601 914 q 738 831 690 880 q 810 719 786 783 q 830 611 830 669 l 830 502 l 830 298 l 830 251 q 829 227 830 239 q 826 204 828 215 q 794 119 817 155 q 739 57 771 82 q 666 19 706 32 q 579 0 625 5 l 69 0 l 69 204 l 227 204 l 579 204 z "},"\u0000":{"ha":0,"x_min":0,"x_max":0,"o":""},"\u001d":{"ha":0,"x_min":0,"x_max":0,"o":""}," ":{"ha":370,"x_min":0,"x_max":0,"o":""}," ":{"ha":370,"x_min":0,"x_max":0,"o":""},"!":{"ha":250,"x_min":23,"x_max":227,"o":"m 227 0 l 23 0 l 23 154 l 227 154 l 227 0 m 227 213 l 23 213 l 23 924 l 227 924 l 227 213 z "},"\"":{"ha":294,"x_min":23,"x_max":271,"o":"m 23 924 l 125 924 l 125 759 l 23 759 l 23 924 m 169 924 l 271 924 l 271 759 l 169 759 l 169 924 z "},"#":{"ha":1994,"x_min":71,"x_max":1923,"o":"m 105 850 l 78 850 l 101 976 q 116 979 108 978 q 134 980 124 980 q 153 978 144 980 q 169 970 161 976 q 183 943 183 961 q 165 906 183 919 q 125 895 148 895 q 114 897 116 895 l 105 850 m 118 919 q 129 918 119 918 q 149 924 142 918 q 156 941 156 931 q 150 954 156 951 q 136 957 144 957 l 125 957 l 118 919 m 232 954 l 227 926 l 275 926 l 269 905 l 223 905 l 218 873 l 269 873 l 264 850 l 185 850 l 209 980 l 285 980 l 282 954 l 232 954 m 311 850 l 284 850 l 307 976 q 324 979 315 978 q 343 980 332 980 q 361 978 352 980 q 377 972 369 977 q 388 962 384 968 q 392 946 392 956 q 383 924 392 932 q 362 910 375 915 l 362 910 q 373 886 373 905 q 376 864 375 875 q 379 850 377 854 l 352 850 q 346 881 349 854 q 330 901 346 901 l 320 901 l 311 850 m 324 920 l 337 920 q 355 926 348 920 q 362 943 362 932 q 356 954 362 950 q 343 957 350 957 l 333 957 l 324 920 m 431 871 q 446 875 440 871 q 452 886 452 878 q 435 905 452 896 q 417 918 425 910 q 408 939 408 926 q 423 970 408 958 q 459 981 437 981 q 479 979 472 981 q 489 974 486 977 l 481 950 q 472 955 479 953 q 457 957 465 957 q 442 953 447 957 q 437 943 437 948 q 456 924 437 933 q 481 892 481 914 q 466 859 481 869 q 430 848 451 848 q 392 856 403 848 l 401 879 q 416 874 408 876 q 431 871 424 871 m 569 981 q 607 966 594 981 q 620 926 620 950 q 615 893 620 908 q 598 866 609 877 q 549 848 581 848 q 511 863 524 848 q 497 901 497 879 q 504 935 497 919 q 521 963 510 952 q 569 981 540 981 m 576 881 q 587 901 583 888 q 591 926 591 914 q 586 948 591 939 q 565 957 581 957 q 544 948 553 957 q 531 927 535 940 q 527 903 527 914 q 533 879 527 889 q 553 869 540 869 q 576 881 565 869 m 653 850 l 627 850 l 651 980 l 684 980 l 700 928 q 707 906 705 916 q 713 886 710 896 q 714 906 713 896 q 719 931 716 917 l 728 980 l 754 980 l 730 850 l 700 850 l 684 901 q 676 924 680 914 q 669 946 672 933 q 665 923 668 936 q 660 894 663 909 l 653 850 m 775 850 l 746 850 l 808 980 l 843 980 l 859 850 l 831 850 l 827 882 l 790 882 l 775 850 m 799 905 l 827 905 l 823 931 q 823 944 823 937 q 821 957 823 950 q 816 944 819 950 q 810 931 813 939 l 799 905 m 925 980 l 905 873 l 955 873 l 951 850 l 872 850 l 898 980 l 925 980 m 1038 905 q 1038 897 1038 902 q 1037 888 1037 893 q 1042 875 1037 881 q 1056 869 1046 869 q 1084 905 1076 869 l 1099 980 l 1126 980 l 1111 905 q 1093 862 1106 875 q 1051 848 1079 848 q 1021 857 1032 848 q 1009 888 1009 867 q 1009 897 1009 893 q 1011 906 1009 902 l 1026 980 l 1053 980 l 1038 905 m 1161 871 q 1175 875 1169 871 q 1181 886 1181 878 q 1165 905 1181 897 q 1145 918 1154 910 q 1137 939 1137 926 q 1152 970 1137 958 q 1188 981 1168 981 q 1208 979 1201 981 q 1219 974 1215 977 l 1210 950 q 1201 955 1207 953 q 1186 957 1194 957 q 1172 953 1177 957 q 1167 943 1167 948 q 1172 933 1167 937 q 1184 924 1177 929 q 1205 911 1197 919 q 1212 892 1212 903 q 1196 859 1212 869 q 1159 848 1180 848 q 1122 856 1131 848 l 1130 879 q 1145 874 1137 876 q 1161 871 1153 871 m 1270 954 l 1265 926 l 1311 926 l 1307 905 l 1261 905 l 1256 873 l 1307 873 l 1304 850 l 1223 850 l 1248 980 l 1323 980 l 1319 954 l 1270 954 m 1462 866 q 1415 848 1447 848 q 1377 863 1390 848 q 1364 901 1364 879 q 1369 935 1364 919 q 1385 963 1375 952 q 1433 981 1406 981 q 1473 966 1459 981 q 1486 926 1486 950 q 1462 866 1486 890 m 1391 903 q 1398 879 1391 889 q 1419 869 1405 869 q 1431 872 1426 869 q 1441 881 1435 875 q 1452 901 1448 889 q 1456 926 1456 914 q 1451 948 1456 939 q 1430 957 1445 957 q 1407 948 1417 957 q 1395 927 1400 940 q 1391 903 1391 914 m 1535 946 q 1531 923 1533 936 q 1526 894 1529 909 l 1518 850 l 1492 850 l 1518 980 l 1550 980 l 1567 928 q 1574 906 1571 916 q 1578 886 1576 896 l 1580 886 q 1581 906 1580 896 q 1585 931 1582 917 l 1592 980 l 1619 980 l 1595 850 l 1567 850 l 1548 901 q 1540 924 1543 914 q 1535 946 1538 933 m 1670 980 l 1653 873 l 1702 873 l 1696 850 l 1619 850 l 1645 980 l 1670 980 m 1747 850 l 1720 850 l 1729 903 l 1704 980 l 1734 980 l 1742 946 q 1745 931 1744 936 q 1747 922 1745 927 q 1753 933 1750 927 q 1760 946 1756 939 l 1781 980 l 1813 980 l 1756 903 l 1747 850 m 1839 862 q 1844 876 1839 870 q 1857 882 1849 882 q 1868 878 1864 882 q 1871 866 1871 873 q 1854 848 1871 848 q 1839 862 1839 848 m 1869 892 l 1850 892 l 1862 980 l 1892 980 l 1869 892 m 99 362 l 99 327 l 142 327 l 142 314 l 99 314 l 99 265 l 84 265 l 84 374 l 145 374 l 145 362 l 99 362 m 229 305 q 217 273 229 283 q 191 263 205 263 q 163 275 174 263 q 152 305 152 286 q 164 335 152 324 q 193 345 176 345 q 219 334 209 345 q 229 305 229 323 m 167 305 q 174 283 167 292 q 191 274 181 274 q 209 283 202 274 q 216 305 216 292 q 210 325 216 315 q 191 334 205 334 q 173 325 180 334 q 167 305 167 316 m 247 265 l 247 319 l 247 344 l 260 344 l 260 329 l 260 329 q 282 345 266 345 l 285 345 l 285 331 q 281 332 284 332 q 262 314 265 332 l 262 306 l 262 265 l 247 265 m 328 319 q 344 360 328 344 q 384 376 360 376 q 401 374 394 376 q 410 370 407 372 l 408 360 q 397 363 403 362 q 386 364 392 364 q 354 352 365 364 q 343 319 343 341 q 354 288 343 299 q 384 276 365 276 q 397 277 392 276 q 408 280 403 278 l 410 269 q 400 265 407 267 q 381 263 392 263 q 344 278 359 263 q 328 319 328 293 m 457 263 q 431 275 441 263 q 421 305 421 286 q 432 335 421 324 q 459 345 443 345 q 486 334 476 345 q 495 305 495 323 q 484 273 495 283 q 457 263 473 263 m 459 334 q 440 325 446 334 q 433 305 433 316 q 441 283 433 292 q 459 274 448 274 q 475 283 469 274 q 481 305 481 292 q 477 325 481 315 q 459 334 472 334 m 611 265 l 611 310 q 594 334 611 334 q 583 330 587 334 q 578 321 580 326 q 577 318 578 319 q 576 314 576 316 l 576 265 l 563 265 l 563 312 q 559 328 563 322 q 547 334 556 334 q 535 330 540 334 q 529 319 531 325 q 528 316 529 318 q 527 312 527 314 l 527 265 l 514 265 l 514 323 q 514 334 514 329 q 512 344 514 339 l 525 344 l 527 331 q 535 341 530 336 q 551 345 541 345 q 572 329 567 345 q 577 336 575 333 q 581 340 580 338 q 589 344 586 343 q 600 345 593 345 q 617 339 607 345 q 626 310 626 332 l 626 265 l 611 265 m 761 265 l 746 265 l 746 310 q 730 334 746 334 q 718 330 722 334 q 711 321 714 326 l 711 314 l 711 265 l 696 265 l 696 312 q 693 328 696 322 q 681 334 689 334 q 669 330 673 334 q 662 319 665 325 l 662 312 l 662 265 l 649 265 l 649 323 q 649 334 649 329 q 647 344 649 339 l 660 344 l 660 331 q 670 341 665 336 q 686 345 676 345 q 707 329 702 345 q 717 340 710 336 q 725 344 721 343 q 735 345 728 345 q 752 339 743 345 q 761 310 761 332 l 761 265 m 844 308 l 844 303 l 790 303 q 798 281 790 288 q 818 274 806 274 q 839 280 830 274 l 841 269 q 830 265 836 267 q 816 263 824 263 q 787 274 797 263 q 777 303 777 285 q 786 333 777 321 q 814 345 795 345 q 838 332 832 345 q 844 308 844 319 m 832 312 q 829 327 832 319 q 812 334 825 334 q 797 327 802 334 q 790 312 792 319 l 832 312 m 863 319 l 863 344 l 876 344 l 876 329 l 876 329 q 898 345 881 345 l 901 345 l 901 331 q 896 332 900 332 q 878 314 881 332 l 878 306 l 878 265 l 863 265 l 863 319 m 969 269 q 962 265 968 267 q 947 263 956 263 q 919 274 929 263 q 908 303 908 285 q 920 333 908 321 q 951 345 931 345 q 963 344 956 345 q 970 342 969 344 l 968 331 q 951 334 960 334 q 930 326 937 334 q 923 305 923 318 q 931 284 923 292 q 951 276 938 276 q 968 280 960 276 l 969 269 m 993 374 q 1002 366 1002 374 q 993 358 1002 358 q 985 366 985 358 q 993 374 985 374 m 987 344 l 1000 344 l 1000 265 l 987 265 l 987 344 m 1042 263 q 1024 270 1030 263 q 1019 287 1019 277 q 1031 308 1019 300 q 1064 314 1043 316 l 1064 316 q 1061 328 1064 321 q 1047 334 1058 334 q 1036 333 1042 334 q 1028 329 1031 331 l 1024 338 q 1035 344 1029 343 q 1049 345 1042 345 q 1073 335 1068 345 q 1079 312 1079 325 l 1079 285 q 1079 275 1079 280 q 1081 265 1079 269 l 1068 265 l 1066 276 l 1066 276 q 1056 267 1063 271 q 1042 263 1050 263 m 1066 305 q 1042 302 1053 305 q 1031 289 1031 299 q 1036 277 1031 281 q 1045 274 1040 274 q 1064 287 1061 274 q 1065 290 1064 289 q 1066 293 1066 291 l 1066 305 m 1103 380 l 1115 380 l 1115 265 l 1103 265 l 1103 380 m 1154 287 q 1146 264 1151 276 q 1139 246 1142 252 l 1128 244 q 1134 264 1131 253 q 1139 285 1137 275 l 1154 287 m 1205 372 q 1217 375 1210 374 q 1232 376 1224 376 q 1250 373 1243 376 q 1263 366 1257 369 q 1272 344 1272 359 q 1265 319 1272 327 q 1232 308 1251 308 l 1219 308 l 1219 265 l 1205 265 l 1205 372 m 1219 321 q 1232 319 1223 319 q 1252 325 1244 319 q 1259 344 1259 331 q 1252 359 1259 355 q 1234 364 1244 364 l 1219 364 l 1219 321 m 1291 380 l 1306 380 l 1306 265 l 1291 265 l 1291 380 m 1387 269 q 1376 265 1382 267 q 1362 263 1370 263 q 1333 274 1344 263 q 1323 303 1323 285 q 1332 333 1323 321 q 1360 345 1342 345 q 1384 332 1378 345 q 1391 308 1391 319 l 1391 303 l 1336 303 q 1344 281 1336 288 q 1364 274 1353 274 q 1383 280 1380 274 l 1387 269 m 1358 334 q 1343 327 1347 334 q 1336 312 1338 319 l 1379 312 q 1374 327 1379 319 q 1358 334 1369 334 m 1451 265 l 1451 276 q 1442 267 1447 271 q 1426 263 1436 263 q 1408 270 1415 263 q 1402 287 1402 277 q 1415 308 1402 300 q 1450 314 1428 316 l 1450 316 q 1447 328 1450 321 q 1431 334 1444 334 q 1411 329 1419 334 l 1407 338 q 1435 345 1418 345 q 1457 335 1451 345 q 1464 312 1464 325 l 1464 285 l 1464 265 l 1451 265 m 1450 305 q 1428 302 1439 305 q 1417 289 1417 299 q 1430 274 1417 274 q 1442 278 1438 274 q 1448 287 1445 281 q 1450 293 1450 289 l 1450 305 m 1531 287 q 1525 270 1531 277 q 1503 263 1518 263 q 1491 264 1497 263 q 1481 270 1485 266 l 1484 280 q 1493 276 1489 278 q 1505 274 1497 274 q 1518 287 1518 274 q 1505 300 1518 294 q 1482 323 1482 307 q 1490 338 1482 331 q 1510 345 1497 345 q 1520 344 1516 345 q 1530 342 1525 344 l 1526 331 q 1519 333 1523 332 q 1510 334 1516 334 q 1497 325 1497 334 q 1512 310 1497 315 q 1531 287 1531 303 m 1612 308 l 1612 303 l 1559 303 q 1567 281 1559 288 q 1585 274 1574 274 q 1606 280 1598 274 l 1608 269 q 1598 265 1604 267 q 1583 263 1593 263 q 1555 274 1565 263 q 1544 303 1544 285 q 1555 333 1544 321 q 1581 345 1565 345 q 1606 332 1600 345 q 1612 308 1612 319 m 1599 312 q 1595 327 1599 319 q 1581 334 1592 334 q 1565 327 1570 334 q 1559 312 1559 319 l 1599 312 m 1738 374 l 1700 265 l 1683 265 l 1649 374 l 1663 374 l 1680 321 q 1691 280 1688 299 q 1696 300 1694 290 q 1704 321 1699 310 l 1722 374 l 1738 374 m 1753 374 q 1762 366 1762 374 q 1753 358 1762 358 q 1747 361 1750 358 q 1744 366 1744 363 q 1747 372 1744 369 q 1753 374 1750 374 m 1745 344 l 1760 344 l 1760 265 l 1745 265 l 1745 344 m 1802 274 q 1815 287 1815 274 q 1802 300 1815 294 q 1781 323 1781 307 q 1788 338 1781 331 q 1807 345 1795 345 q 1818 344 1813 345 q 1828 342 1823 344 l 1824 331 q 1807 334 1817 334 q 1794 325 1794 334 q 1809 310 1794 315 q 1830 287 1830 302 q 1823 270 1830 277 q 1800 263 1816 263 q 1779 270 1786 263 l 1782 280 q 1791 276 1787 278 q 1802 274 1794 274 m 1856 374 q 1864 366 1864 374 q 1856 358 1864 358 q 1846 366 1846 358 q 1856 374 1846 374 m 1862 265 l 1848 265 l 1848 344 l 1862 344 l 1862 265 m 1903 332 l 1903 291 q 1905 280 1903 283 q 1914 276 1906 276 l 1921 276 l 1923 265 q 1917 264 1920 265 q 1910 263 1913 263 q 1894 270 1898 263 q 1888 291 1888 276 l 1888 332 l 1877 332 l 1877 344 l 1888 344 l 1888 362 l 1903 366 l 1903 344 l 1923 344 l 1923 332 l 1903 332 m 529 29 l 531 47 q 513 32 523 36 q 495 28 504 28 q 471 38 481 28 q 461 69 461 48 q 480 120 461 98 q 531 143 499 143 q 538 143 533 143 q 545 141 543 143 l 555 190 l 587 190 l 565 73 q 559 29 559 51 l 529 29 m 508 53 q 524 61 517 53 q 536 84 531 69 l 542 113 q 527 119 536 119 q 503 105 513 119 q 494 75 494 91 q 497 59 494 65 q 508 53 501 53 m 645 171 q 639 159 645 164 q 626 154 633 154 q 614 158 619 154 q 609 169 609 163 q 615 183 609 178 q 629 188 621 188 q 641 184 636 188 q 645 171 645 180 m 617 29 l 583 29 l 606 141 l 638 141 l 617 29 m 724 92 q 725 98 724 94 q 726 104 726 101 q 715 117 726 117 q 699 107 706 117 q 688 79 691 97 l 677 29 l 644 29 l 658 104 q 662 124 660 115 q 666 141 663 132 l 694 141 l 692 122 q 731 143 706 143 q 759 113 759 143 l 759 94 l 746 29 l 713 29 l 724 92 m 779 100 l 839 100 l 833 79 l 775 79 l 779 100 m 903 119 q 889 109 889 119 q 901 96 889 103 q 919 86 911 93 q 927 66 927 79 q 912 38 927 47 q 876 28 897 28 q 841 36 852 28 l 850 58 q 863 53 855 56 q 880 51 871 51 q 894 62 894 51 q 880 77 894 69 q 863 88 869 82 q 856 104 856 94 q 869 132 856 122 q 903 143 882 143 q 932 137 927 143 l 925 113 q 903 119 917 119 m 985 79 q 983 70 983 74 q 983 64 983 67 q 993 55 983 55 l 1002 55 l 998 29 q 989 28 994 28 q 980 28 984 28 q 957 34 964 28 q 951 51 951 40 q 951 61 951 56 q 953 71 951 66 l 960 117 l 947 117 l 951 141 l 966 141 l 970 165 l 1004 171 l 998 141 l 1022 141 l 1017 117 l 993 117 l 985 79 m 1092 29 l 1094 47 l 1092 47 q 1074 32 1084 36 q 1053 28 1064 28 q 1033 35 1041 28 q 1026 58 1026 42 q 1026 68 1026 63 q 1028 79 1026 73 l 1040 141 l 1071 141 l 1062 82 q 1061 74 1062 78 q 1060 66 1060 70 q 1062 57 1060 61 q 1071 53 1064 53 q 1087 63 1080 53 q 1099 90 1094 73 l 1107 141 l 1141 141 l 1126 66 q 1120 29 1120 44 l 1092 29 m 1219 29 l 1221 47 q 1204 32 1213 36 q 1184 28 1194 28 q 1160 38 1169 28 q 1150 69 1150 48 q 1169 120 1150 98 q 1219 143 1187 143 q 1228 143 1224 143 q 1236 141 1231 143 l 1244 190 l 1278 190 l 1254 73 q 1250 51 1251 62 q 1250 29 1250 40 l 1219 29 m 1199 53 q 1213 61 1206 53 q 1225 84 1220 69 l 1231 113 q 1218 119 1228 119 q 1192 105 1202 119 q 1182 75 1182 91 q 1187 59 1182 65 q 1199 53 1192 53 m 1336 171 q 1330 159 1336 164 q 1316 154 1323 154 q 1305 158 1309 154 q 1300 169 1300 163 q 1306 183 1300 178 q 1319 188 1312 188 q 1331 184 1327 188 q 1336 171 1336 180 m 1307 29 l 1274 29 l 1296 141 l 1327 141 l 1307 29 m 1385 28 q 1351 40 1365 28 q 1338 73 1338 52 q 1356 122 1338 102 q 1404 143 1375 143 q 1439 130 1428 143 q 1451 98 1451 117 q 1433 47 1451 67 q 1385 28 1415 28 m 1400 119 q 1379 103 1386 119 q 1371 73 1371 87 q 1376 57 1371 63 q 1389 51 1381 51 q 1401 56 1396 51 q 1411 67 1406 60 q 1417 82 1415 74 q 1419 96 1419 90 q 1414 112 1419 105 q 1400 119 1410 119 m 1477 28 q 1458 45 1458 28 q 1464 63 1458 56 q 1481 69 1470 69 q 1501 49 1501 69 q 1477 28 1501 28 m 1592 117 q 1566 104 1576 117 q 1556 77 1556 92 q 1562 59 1556 66 q 1578 53 1568 53 q 1599 58 1591 53 l 1599 32 q 1569 28 1590 28 q 1534 39 1547 28 q 1520 73 1520 51 q 1541 122 1520 102 q 1594 143 1562 143 q 1606 142 1601 143 q 1616 139 1611 141 l 1608 113 q 1592 117 1605 117 m 1665 28 q 1631 40 1644 28 q 1618 73 1618 52 q 1636 122 1618 102 q 1683 143 1655 143 q 1719 130 1707 143 q 1731 98 1731 117 q 1713 47 1731 67 q 1665 28 1694 28 m 1680 119 q 1658 103 1666 119 q 1651 73 1651 87 q 1656 57 1651 63 q 1669 51 1660 51 q 1681 56 1676 51 q 1690 67 1686 60 q 1696 82 1694 74 q 1698 96 1698 90 q 1694 112 1698 105 q 1680 119 1690 119 m 1882 90 q 1884 98 1884 94 q 1884 104 1884 101 q 1873 117 1884 117 q 1858 106 1865 117 q 1848 81 1851 96 l 1839 29 l 1806 29 l 1819 92 q 1819 98 1819 94 q 1820 104 1820 101 q 1809 117 1820 117 q 1792 106 1799 117 q 1782 81 1785 96 l 1773 29 l 1740 29 l 1755 104 q 1757 124 1756 115 q 1760 141 1758 132 l 1790 141 l 1788 122 q 1805 138 1794 133 q 1826 143 1815 143 q 1844 136 1839 143 q 1852 122 1850 130 q 1890 143 1866 143 q 1910 135 1903 143 q 1918 113 1918 127 q 1917 103 1918 108 q 1914 94 1917 98 l 1903 29 l 1871 29 l 1882 90 m 204 433 q 147 444 172 435 q 106 467 122 453 q 80 500 89 481 q 72 541 71 519 q 77 570 72 558 q 88 588 81 581 q 102 597 94 594 q 116 599 109 599 q 137 594 129 599 q 149 581 145 588 q 150 564 152 573 q 144 548 149 556 q 136 565 144 559 q 118 570 128 571 q 100 561 108 569 q 92 535 92 553 q 122 477 92 498 q 204 456 153 456 q 256 471 236 456 q 288 508 277 486 q 303 557 299 531 q 307 608 307 584 q 306 650 307 625 q 300 697 306 674 q 282 735 294 719 q 247 751 269 751 q 239 746 243 751 q 234 725 236 741 l 234 656 l 234 654 l 234 539 q 237 522 234 528 q 243 514 240 517 q 251 511 246 511 l 251 505 l 154 505 l 154 511 q 162 513 158 511 q 169 519 166 515 q 172 533 171 524 l 172 533 l 172 729 q 168 751 172 742 q 147 760 163 760 q 132 755 137 760 q 127 745 127 750 q 136 731 127 735 q 145 731 140 731 q 136 708 145 713 q 118 704 126 704 q 103 707 108 704 q 94 716 97 711 q 91 725 92 720 q 90 731 90 730 q 96 750 90 742 q 110 764 102 758 q 129 772 119 769 q 147 775 139 775 q 173 772 162 774 q 194 767 184 769 q 217 762 205 764 q 247 760 230 760 q 294 753 272 760 q 334 728 317 745 q 361 681 351 710 q 371 606 371 651 q 362 546 371 577 q 333 490 353 515 q 281 449 313 465 q 204 433 249 432 m 489 505 l 392 505 l 392 511 q 399 513 396 511 q 408 533 407 518 l 408 638 q 405 650 407 646 q 399 656 403 655 q 392 659 396 659 l 392 667 l 470 683 l 470 539 q 473 522 470 528 q 480 514 476 517 q 489 511 483 511 l 489 505 m 441 753 q 462 744 454 753 q 470 725 470 736 q 462 705 470 713 q 441 696 454 696 q 420 705 428 696 q 412 725 412 713 q 420 744 412 736 q 441 753 428 753 m 589 659 q 609 675 596 668 q 640 683 622 683 q 678 670 662 683 q 694 629 694 657 l 694 539 q 701 515 694 519 q 711 511 708 511 l 711 505 l 615 505 l 615 511 q 622 513 619 511 q 627 519 625 515 q 631 533 630 524 l 631 634 q 624 650 631 645 q 610 655 618 656 q 595 647 602 654 q 589 629 589 640 l 589 539 q 592 522 589 528 q 597 514 594 517 q 606 511 601 511 l 606 505 l 508 505 l 508 511 q 517 513 513 511 q 523 519 520 515 q 527 533 526 524 l 527 638 q 523 650 526 646 q 517 656 520 655 q 508 659 513 659 l 508 667 l 589 683 l 589 659 m 883 694 q 894 729 884 713 q 923 752 904 742 q 980 762 943 762 q 1008 758 997 762 q 1028 752 1019 755 q 1043 748 1036 749 q 1056 753 1049 747 q 1061 756 1059 755 q 1068 758 1063 758 q 1067 743 1067 754 q 1067 721 1067 732 q 1068 693 1067 708 l 1058 691 q 1044 718 1055 706 q 1020 736 1036 728 q 978 744 1005 744 q 950 735 961 744 q 934 715 939 726 q 932 693 930 704 q 947 678 935 682 q 988 666 962 671 q 1038 650 1014 661 q 1080 621 1063 640 q 1095 569 1097 602 q 1068 521 1093 539 q 989 503 1043 503 q 949 505 964 503 q 925 509 933 507 q 912 511 916 511 q 903 505 907 510 l 893 505 l 893 572 l 903 572 q 910 551 903 560 q 930 535 918 542 q 957 525 942 529 q 987 522 972 522 q 1026 532 1013 522 q 1040 555 1039 542 q 1032 581 1042 569 q 1004 599 1023 594 q 965 611 986 605 q 925 627 944 617 q 895 653 907 637 q 883 694 883 669 m 1203 676 q 1196 673 1199 676 q 1191 667 1194 671 q 1186 654 1188 662 l 1186 533 q 1190 519 1187 524 q 1195 513 1193 515 q 1203 511 1198 511 l 1203 505 l 1177 505 q 1160 505 1169 505 q 1143 510 1151 506 q 1130 524 1135 514 q 1124 552 1124 533 l 1124 652 q 1120 666 1123 661 q 1115 673 1118 671 q 1106 676 1111 676 l 1106 683 q 1134 687 1123 683 q 1154 694 1145 690 q 1169 700 1162 697 q 1186 704 1177 704 l 1186 683 l 1203 683 l 1203 676 m 1219 683 l 1314 683 l 1314 676 q 1308 673 1310 676 q 1302 652 1302 669 l 1302 557 q 1308 536 1302 542 q 1323 532 1315 531 q 1337 541 1331 533 q 1344 557 1344 548 l 1344 648 q 1336 672 1344 667 q 1329 676 1332 676 l 1329 683 l 1422 683 l 1422 676 q 1415 673 1418 676 q 1409 666 1412 671 q 1406 652 1406 661 l 1406 533 q 1409 519 1406 524 q 1415 513 1412 515 q 1422 511 1418 511 l 1422 505 l 1379 505 q 1353 514 1363 505 q 1344 531 1344 523 q 1327 514 1338 523 q 1298 505 1317 505 q 1257 517 1277 505 q 1238 557 1238 530 l 1238 648 q 1236 663 1238 657 q 1231 671 1233 669 q 1225 675 1228 674 q 1221 676 1222 676 l 1219 676 l 1219 683 m 1689 462 q 1681 442 1689 451 q 1655 433 1673 433 q 1632 436 1647 433 q 1601 446 1618 438 q 1572 468 1585 454 q 1554 507 1558 482 q 1539 504 1546 506 q 1524 503 1532 503 q 1462 529 1487 503 q 1437 594 1437 555 q 1462 657 1437 631 q 1524 683 1487 683 q 1539 682 1531 683 q 1552 680 1546 681 l 1552 760 l 1632 745 l 1632 738 q 1625 735 1628 738 q 1619 729 1622 733 q 1616 716 1617 724 l 1616 528 q 1628 469 1618 486 q 1657 449 1639 451 q 1653 454 1656 451 q 1651 462 1651 457 q 1656 475 1651 470 q 1670 481 1662 481 q 1689 462 1689 481 m 1524 517 q 1547 539 1543 517 q 1552 594 1552 562 q 1547 649 1552 627 q 1524 670 1543 670 q 1502 649 1506 670 q 1497 594 1497 627 q 1502 539 1497 562 q 1524 517 1506 517 m 1740 505 l 1644 505 l 1644 511 q 1651 513 1647 511 q 1656 519 1654 515 q 1659 533 1658 524 l 1659 638 q 1656 650 1658 646 q 1651 656 1654 655 q 1644 659 1647 659 l 1644 667 l 1722 683 l 1722 539 q 1725 522 1722 528 q 1731 514 1728 517 q 1740 511 1735 511 l 1740 505 m 1663 725 q 1671 744 1663 736 q 1693 753 1680 753 q 1714 744 1706 753 q 1722 725 1722 736 q 1714 705 1722 713 q 1693 696 1706 696 q 1671 705 1680 696 q 1663 725 1663 713 m 1919 594 q 1913 558 1919 574 q 1893 529 1906 542 q 1864 510 1881 517 q 1830 503 1848 503 q 1767 529 1793 503 q 1742 594 1742 555 q 1767 657 1742 631 q 1830 683 1793 683 q 1864 676 1848 683 q 1893 657 1881 669 q 1913 629 1906 645 q 1919 594 1919 612 m 1830 517 q 1853 539 1848 517 q 1857 594 1857 562 q 1853 649 1857 627 q 1830 670 1848 670 q 1807 649 1811 670 q 1804 594 1804 627 q 1808 539 1804 562 q 1830 517 1812 517 m 84 96 l 421 96 l 421 53 l 84 53 l 84 96 m 821 1032 l 976 1228 l 1179 1228 l 1024 1032 l 821 1032 m 1731 1032 l 1884 1228 l 1921 1228 l 1921 1032 l 1731 1032 m 216 1032 l 369 1228 l 572 1228 l 419 1032 l 216 1032 m 1124 1032 l 1280 1228 l 1481 1228 l 1327 1032 l 1124 1032 m 116 1032 l 84 1032 l 84 1228 l 269 1228 l 116 1032 m 519 1032 l 673 1228 l 876 1228 l 722 1032 l 519 1032 m 1428 1032 l 1581 1228 l 1784 1228 l 1629 1032 l 1428 1032 m 1179 -30 l 1024 -223 l 821 -223 l 976 -30 l 1179 -30 m 1884 -30 l 1921 -30 l 1921 -223 l 1731 -223 l 1884 -30 m 572 -30 l 419 -223 l 216 -223 l 369 -30 l 572 -30 m 1481 -30 l 1327 -223 l 1124 -223 l 1280 -30 l 1481 -30 m 269 -30 l 116 -223 l 84 -223 l 84 -30 l 269 -30 m 876 -30 l 722 -223 l 519 -223 l 673 -30 l 876 -30 m 1784 -30 l 1629 -223 l 1428 -223 l 1581 -30 l 1784 -30 z "},"$":{"ha":6242,"x_min":95,"x_max":6146,"o":"m 692 705 l 919 268 l 1006 98 l 1025 64 l 1058 0 l 1006 0 l 828 0 l 794 64 l 494 64 l 568 268 l 688 268 l 577 483 l 486 307 l 358 64 l 325 0 l 146 0 l 95 0 l 129 64 l 146 98 l 235 268 l 462 705 l 577 926 l 692 705 m 1791 926 l 1757 862 l 1739 827 l 1651 657 l 1424 220 l 1308 0 l 1194 220 l 968 657 l 879 827 l 861 862 l 828 926 l 1057 926 l 1091 862 l 1196 657 l 1308 442 l 1420 657 l 1527 862 l 1560 926 l 1791 926 m 2110 705 l 2336 268 l 2424 98 l 2443 64 l 2476 0 l 2424 0 l 2246 0 l 2213 64 l 1911 64 l 1985 268 l 2106 268 l 1994 483 l 1904 307 l 1776 64 l 1743 0 l 1564 0 l 1513 0 l 1546 64 l 1564 98 l 1653 268 l 1880 705 l 1994 926 l 2110 705 m 2774 926 l 2774 204 l 3010 204 l 3084 204 l 3289 204 l 3289 0 l 2569 0 l 2569 926 l 2774 926 m 3828 721 q 3734 702 3778 721 q 3656 650 3690 683 q 3604 572 3623 617 q 3585 478 3585 528 l 3585 445 q 3604 351 3585 395 q 3656 275 3623 307 q 3734 223 3690 242 q 3828 204 3778 204 q 3922 223 3878 204 q 3999 275 3966 242 q 4051 351 4032 307 q 4070 445 4070 395 l 4070 478 q 4051 572 4070 528 q 3999 650 4032 617 q 3922 702 3966 683 q 3828 721 3878 721 m 3828 926 q 4001 890 3920 926 q 4143 794 4082 855 q 4239 651 4204 732 q 4274 478 4274 569 l 4274 445 q 4239 273 4274 354 q 4143 131 4204 192 q 4001 35 4082 70 q 3828 0 3920 0 q 3655 35 3736 0 q 3513 131 3573 70 q 3418 273 3453 192 q 3382 445 3382 354 l 3382 478 q 3418 651 3382 569 q 3513 794 3453 732 q 3655 890 3573 855 q 3828 926 3736 926 m 4368 926 l 4572 926 l 4887 926 q 5006 901 4950 926 q 5104 835 5062 877 q 5170 738 5145 794 q 5194 618 5194 681 q 5178 519 5194 566 q 5131 432 5161 471 q 5062 365 5102 394 q 4974 323 5021 337 l 5194 0 l 4947 0 l 4734 310 l 4726 323 l 4654 323 l 4723 515 l 4822 515 l 4842 515 l 4887 515 q 4927 523 4908 515 q 4959 545 4945 531 q 4981 578 4973 559 q 4990 618 4990 596 q 4981 657 4990 639 q 4959 690 4973 676 q 4927 712 4945 704 q 4887 720 4908 720 l 4572 720 l 4572 515 l 4572 323 l 4572 310 l 4572 0 l 4368 0 l 4368 310 l 4368 926 m 5493 267 q 5520 223 5498 241 q 5569 205 5542 205 l 5864 205 q 5920 227 5897 205 q 5943 283 5943 250 q 5920 338 5943 315 q 5864 360 5897 360 l 5624 360 l 5569 360 q 5529 363 5548 360 q 5491 371 5509 367 q 5414 407 5449 383 q 5352 464 5380 431 q 5297 566 5316 506 q 5290 604 5293 584 q 5287 643 5287 623 q 5302 734 5287 691 q 5345 813 5318 778 q 5410 875 5372 849 q 5491 914 5447 901 q 5529 922 5509 919 q 5569 925 5548 925 l 5864 925 q 5971 904 5921 925 q 6059 847 6021 883 q 6120 763 6097 811 q 6146 658 6144 714 l 5942 658 q 5914 703 5935 685 q 5864 721 5894 721 l 5569 721 q 5539 715 5554 721 q 5514 699 5525 709 q 5497 674 5504 688 q 5491 643 5491 659 q 5514 588 5491 610 q 5569 566 5537 566 l 5792 566 l 5864 566 q 5987 538 5931 566 q 6081 464 6043 510 q 6136 360 6119 417 q 6144 322 6142 342 q 6146 283 6146 303 q 6124 173 6146 225 q 6064 83 6102 121 q 5974 23 6026 45 q 5864 1 5922 1 l 5569 1 q 5491 11 5530 1 q 5413 48 5449 23 q 5350 106 5377 72 q 5306 180 5322 139 q 5287 267 5290 221 l 5491 267 l 5493 267 z "},"%":{"ha":1181,"x_min":23,"x_max":1157,"o":"m 752 924 l 190 0 l 429 0 l 990 924 l 752 924 m 252 924 q 341 906 299 924 q 413 857 382 888 q 463 784 444 826 q 481 694 481 742 q 463 606 481 647 q 413 533 444 564 q 341 484 382 502 q 252 466 299 466 q 163 484 205 466 q 90 533 121 502 q 41 606 59 564 q 23 694 23 647 q 41 784 23 742 q 90 857 59 826 q 163 906 121 888 q 252 924 205 924 m 928 457 q 1017 439 975 457 q 1090 390 1059 421 q 1139 318 1121 359 q 1157 229 1157 276 q 1139 140 1157 181 q 1090 67 1121 98 q 1017 18 1059 36 q 928 0 975 0 q 839 18 881 0 q 766 67 797 36 q 717 140 735 98 q 699 229 699 181 q 717 318 699 276 q 766 390 735 359 q 839 439 797 421 q 928 457 881 457 m 928 307 q 872 284 895 307 q 849 229 849 261 q 872 173 849 196 q 928 150 895 150 q 984 173 961 150 q 1007 229 1007 196 q 984 284 1007 261 q 928 307 961 307 m 252 774 q 196 751 219 774 q 173 694 173 728 q 196 639 173 662 q 252 616 219 616 q 307 639 284 616 q 331 694 331 662 q 307 751 331 728 q 252 774 284 774 z "},"&":{"ha":906,"x_min":23,"x_max":882,"o":"m 679 564 l 882 564 l 882 360 l 882 281 l 882 0 l 679 0 l 679 204 l 679 219 l 679 281 l 679 360 l 600 360 l 562 360 l 305 360 q 250 337 272 360 q 227 281 227 314 l 227 204 l 576 204 l 576 0 l 227 0 l 23 0 l 23 281 q 33 360 23 321 q 65 431 44 398 q 115 490 86 463 q 81 564 93 524 q 70 642 70 603 q 82 721 70 683 q 114 792 94 759 q 163 851 134 825 q 227 894 193 877 q 287 916 255 908 q 352 924 319 924 l 679 924 l 882 924 l 882 666 l 679 666 l 679 719 l 352 719 q 297 697 319 719 q 274 642 274 674 q 297 587 274 609 q 352 564 319 564 l 572 564 l 600 564 l 679 564 z "},"'":{"ha":148,"x_min":23,"x_max":125,"o":"m 23 924 l 125 924 l 125 759 l 23 759 l 23 924 z "},"(":{"ha":326,"x_min":23,"x_max":303,"o":"m 125 0 q 85 8 104 0 q 53 30 67 16 q 31 62 39 44 q 23 102 23 81 l 23 204 l 23 719 l 23 822 q 31 862 23 844 q 53 894 39 881 q 85 916 67 908 q 125 924 104 924 l 227 924 l 303 924 l 303 719 l 227 719 l 227 204 l 303 204 l 303 0 l 227 0 l 125 0 z "},")":{"ha":326,"x_min":23,"x_max":303,"o":"m 99 0 l 23 0 l 23 204 l 99 204 l 99 719 l 23 719 l 23 924 l 99 924 l 201 924 q 241 916 222 924 q 273 894 259 908 q 295 862 287 881 q 303 822 303 844 l 303 719 l 303 204 l 303 102 q 295 62 303 81 q 273 30 287 44 q 241 8 259 16 q 201 0 222 0 l 99 0 z "},"*":{"ha":424,"x_min":23,"x_max":401,"o":"m 157 924 l 267 924 l 267 867 l 307 907 l 384 830 l 344 789 l 401 789 l 401 681 l 344 681 l 384 640 l 307 563 l 267 604 l 267 546 l 157 546 l 157 604 l 117 563 l 40 640 l 81 681 l 23 681 l 23 789 l 81 789 l 40 830 l 117 907 l 157 867 l 157 924 z "},"+":{"ha":509,"x_min":23,"x_max":486,"o":"m 356 564 l 486 564 l 486 360 l 356 360 l 356 231 l 153 231 l 153 360 l 23 360 l 23 564 l 153 564 l 153 694 l 356 694 l 356 564 z "},",":{"ha":216,"x_min":23,"x_max":191,"o":"m 23 165 l 190 165 q 176 62 191 96 q 138 14 162 28 q 84 0 114 0 q 23 1 54 0 l 85 78 l 23 78 l 23 165 z "},"-":{"ha":509,"x_min":23,"x_max":486,"o":"m 23 564 l 486 564 l 486 360 l 23 360 l 23 564 z "},"­":{"ha":509,"x_min":23,"x_max":486,"o":"m 23 564 l 486 564 l 486 360 l 23 360 l 23 564 z "},".":{"ha":212,"x_min":23,"x_max":189,"o":"m 106 0 q 47 24 71 0 q 23 82 23 48 q 47 142 23 118 q 106 166 71 166 q 165 142 141 166 q 189 82 189 118 q 165 24 189 48 q 106 0 141 0 z "},"/":{"ha":846,"x_min":23,"x_max":823,"o":"m 823 924 l 261 0 l 23 0 l 584 924 l 823 924 z "},":":{"ha":213,"x_min":23,"x_max":190,"o":"m 106 666 q 166 642 142 666 q 190 582 190 618 q 166 524 190 548 q 106 500 142 500 q 47 524 71 500 q 23 582 23 548 q 47 642 23 618 q 106 666 71 666 m 106 424 q 166 400 142 424 q 190 341 190 375 q 166 282 190 306 q 106 257 142 257 q 47 282 71 257 q 23 341 23 306 q 47 400 23 375 q 106 424 71 424 z "},";":{"ha":216,"x_min":23,"x_max":191,"o":"m 106 666 q 165 642 141 666 q 189 582 189 618 q 165 524 189 548 q 106 500 141 500 q 47 524 71 500 q 23 582 23 548 q 47 642 23 618 q 106 666 71 666 m 23 424 l 189 424 q 176 321 191 356 q 138 272 161 286 q 84 259 114 258 q 23 259 54 259 l 85 337 l 23 337 l 23 424 z "},";":{"ha":216,"x_min":23,"x_max":191,"o":"m 106 666 q 165 642 141 666 q 189 582 189 618 q 165 524 189 548 q 106 500 141 500 q 47 524 71 500 q 23 582 23 548 q 47 642 23 618 q 106 666 71 666 m 23 424 l 189 424 q 176 321 191 356 q 138 272 161 286 q 84 259 114 258 q 23 259 54 259 l 85 337 l 23 337 l 23 424 z "},"<":{"ha":592,"x_min":23,"x_max":569,"o":"m 569 583 l 389 462 l 569 340 l 569 94 l 23 462 l 569 830 l 569 583 z "},"=":{"ha":509,"x_min":23,"x_max":486,"o":"m 23 716 l 486 716 l 486 512 l 23 512 l 23 716 m 23 411 l 486 411 l 486 207 l 23 207 l 23 411 z "},">":{"ha":592,"x_min":23,"x_max":569,"o":"m 23 830 l 569 462 l 23 94 l 23 340 l 204 462 l 23 583 l 23 830 z "},"?":{"ha":752,"x_min":23,"x_max":729,"o":"m 371 0 l 168 0 l 168 154 l 371 154 l 371 0 m 168 536 l 371 536 l 433 536 q 469 544 452 536 q 498 563 485 551 q 518 593 510 576 q 525 629 525 609 q 518 664 525 647 q 498 693 510 681 q 469 713 485 706 q 433 719 452 719 l 371 719 l 168 719 l 135 719 l 73 719 l 23 719 l 23 924 l 73 924 l 135 924 l 168 924 l 433 924 q 527 909 482 924 q 608 866 571 894 q 672 801 644 839 q 714 719 699 764 q 725 675 721 698 q 729 629 729 653 q 706 514 729 568 q 642 420 682 460 q 548 356 602 380 q 433 332 494 332 l 371 332 l 371 213 l 168 213 l 168 332 l 168 536 z "},"@":{"ha":1505,"x_min":23,"x_max":1481,"o":"m 925 307 q 905 355 925 335 q 857 374 885 374 l 646 374 q 599 355 619 374 q 580 307 580 335 q 599 260 580 280 q 646 241 619 241 l 857 241 q 905 260 885 241 q 925 307 925 280 m 752 1191 q 946 1165 853 1191 q 1120 1091 1039 1139 q 1268 977 1201 1044 q 1382 830 1334 911 q 1456 656 1430 749 q 1481 462 1481 563 q 1450 252 1481 352 q 1364 66 1419 152 l 1336 66 l 1152 66 l 1100 66 l 925 66 l 925 75 q 857 66 894 66 l 646 66 q 580 75 610 66 q 510 108 542 86 q 454 161 478 131 q 418 229 431 192 q 405 307 405 266 q 414 374 405 344 q 460 462 428 422 q 580 540 506 519 q 646 549 610 549 l 857 549 q 925 540 894 549 l 925 549 l 925 617 q 905 663 925 644 q 857 683 885 683 l 646 683 q 599 663 619 683 q 580 617 580 644 l 405 617 q 418 695 405 657 q 454 763 431 732 q 510 815 478 794 q 580 848 542 837 q 646 858 613 858 l 857 858 q 925 848 892 858 q 995 815 963 837 q 1050 763 1027 794 q 1087 695 1074 732 q 1100 617 1100 657 l 1100 549 l 1100 374 l 1100 307 l 1100 241 l 1270 241 q 1303 347 1292 292 q 1315 462 1315 403 q 1271 681 1315 579 q 1150 861 1227 784 q 971 981 1074 937 q 752 1025 869 1025 q 602 1005 674 1025 q 468 948 531 985 q 354 860 405 911 q 266 746 303 809 q 209 612 229 683 q 189 462 189 540 q 209 312 189 384 q 266 177 229 240 q 354 63 303 115 q 468 -25 405 12 q 602 -81 531 -61 q 752 -102 674 -102 q 902 -81 831 -102 q 1036 -25 973 -61 l 1036 -210 q 752 -267 902 -267 q 558 -241 651 -267 q 384 -167 465 -215 q 237 -53 303 -119 q 123 94 170 13 q 49 268 75 175 q 23 462 23 361 q 49 656 23 563 q 123 830 75 749 q 237 977 170 911 q 384 1091 303 1044 q 558 1165 465 1139 q 752 1191 651 1191 z "},"A":{"ha":1056,"x_min":46,"x_max":1010,"o":"m 277 0 l 46 0 l 528 926 l 1010 0 l 780 0 l 746 64 l 310 64 l 277 0 m 528 483 l 416 269 l 640 269 l 528 483 z "},"B":{"ha":954,"x_min":46,"x_max":907,"o":"m 251 565 l 581 565 q 612 571 597 565 q 637 588 626 578 q 653 613 647 599 q 659 644 659 628 q 653 674 659 659 q 637 699 647 688 q 612 715 626 709 q 581 721 597 721 l 251 721 l 251 565 m 818 489 q 830 476 824 482 q 842 463 836 470 q 896 361 879 419 q 907 282 907 324 q 885 173 907 224 q 825 83 863 121 q 735 22 786 44 q 625 0 683 0 l 251 0 l 46 0 l 46 361 l 46 463 l 46 565 l 46 926 l 251 926 l 581 926 q 690 904 639 926 q 781 843 742 881 q 842 753 819 805 q 864 644 864 702 q 861 603 864 622 q 852 565 857 583 q 818 489 841 525 m 251 205 l 625 205 q 681 227 657 205 q 704 282 704 250 q 681 338 704 315 q 625 361 657 361 l 581 361 l 251 361 l 251 205 z "},"C":{"ha":935,"x_min":46,"x_max":889,"o":"m 889 242 q 820 144 861 188 q 727 67 779 99 q 617 18 676 35 q 493 0 557 0 q 319 36 400 0 q 177 132 237 71 q 81 274 117 193 q 46 447 46 356 l 46 479 q 81 653 46 571 q 177 795 117 734 q 319 891 238 856 q 493 926 401 926 q 617 908 557 926 q 727 859 676 891 q 820 783 779 827 q 889 685 861 739 l 706 594 q 668 647 691 624 q 617 687 645 670 q 557 713 589 704 q 493 721 525 721 q 398 702 443 721 q 321 650 354 683 q 269 573 288 617 q 250 479 250 529 l 250 447 q 269 353 250 397 q 321 276 288 309 q 398 224 354 243 q 493 205 443 205 q 557 213 525 205 q 617 239 589 222 q 668 279 645 256 q 706 331 691 303 l 889 242 z "},"D":{"ha":954,"x_min":46,"x_max":907,"o":"m 703 495 q 685 583 703 542 q 636 655 667 624 q 564 703 606 685 q 477 721 523 721 l 250 721 l 250 463 l 250 205 l 477 205 q 564 223 523 205 q 636 271 606 241 q 685 343 667 302 q 703 431 703 384 l 703 463 l 703 495 m 46 0 l 46 463 l 46 926 l 250 926 l 477 926 q 644 892 566 926 q 781 800 722 858 q 873 663 839 741 q 907 495 907 584 l 907 463 l 907 431 q 873 263 907 342 q 781 126 839 185 q 644 34 722 68 q 477 0 566 0 l 250 0 l 46 0 z "},"E":{"ha":842,"x_min":46,"x_max":795,"o":"m 250 205 l 795 205 l 795 0 l 46 0 l 46 926 l 795 926 l 795 721 l 250 721 l 250 565 l 731 565 l 731 361 l 250 361 l 250 205 z "},"F":{"ha":843,"x_min":46,"x_max":796,"o":"m 251 282 l 251 205 l 251 0 l 46 0 l 46 205 l 46 361 l 46 463 l 46 565 l 46 721 l 46 926 l 796 926 l 796 721 l 251 721 l 251 565 l 731 565 l 731 361 l 251 361 l 251 282 z "},"G":{"ha":986,"x_min":46,"x_max":940,"o":"m 46 447 l 46 479 q 82 653 46 571 q 178 795 118 734 q 320 891 239 856 q 494 926 402 926 q 617 908 557 926 q 728 859 677 891 q 820 783 779 827 q 889 685 861 739 l 706 594 q 619 687 675 652 q 494 721 562 721 q 400 702 444 721 q 322 650 356 683 q 270 573 289 617 q 251 479 251 529 l 251 447 q 270 353 251 397 q 322 276 289 309 q 400 224 356 243 q 494 205 444 205 q 594 226 547 205 q 673 285 640 247 l 481 285 l 481 490 l 940 490 l 940 447 q 905 274 940 356 q 810 132 870 193 q 668 36 749 71 q 494 0 587 0 q 320 35 402 0 q 178 131 239 70 q 82 273 118 192 q 46 447 46 355 z "},"H":{"ha":905,"x_min":46,"x_max":858,"o":"m 250 361 l 250 0 l 46 0 l 46 926 l 250 926 l 250 565 l 655 565 l 655 926 l 858 926 l 858 0 l 655 0 l 655 361 l 250 361 z "},"I":{"ha":296,"x_min":46,"x_max":250,"o":"m 250 926 l 250 0 l 46 0 l 46 926 l 250 926 z "},"J":{"ha":795,"x_min":46,"x_max":749,"o":"m 251 205 l 290 205 l 398 205 q 461 219 431 205 q 511 258 491 233 q 539 310 531 281 q 544 331 542 320 q 545 352 545 341 l 545 696 l 545 721 l 545 926 l 749 926 l 749 352 q 717 205 749 272 q 663 122 696 159 q 589 57 631 84 q 500 15 548 31 q 398 0 451 0 l 373 0 l 46 0 l 46 205 l 251 205 z "},"K":{"ha":954,"x_min":46,"x_max":907,"o":"m 444 565 l 637 926 l 869 926 l 673 561 q 767 526 724 552 q 841 464 810 501 q 890 381 872 427 q 907 282 907 334 l 907 0 l 703 0 l 703 282 q 680 338 703 315 q 625 361 657 361 l 251 361 l 251 0 l 46 0 l 46 926 l 251 926 l 251 565 l 444 565 z "},"L":{"ha":813,"x_min":46,"x_max":767,"o":"m 46 926 l 251 926 l 251 205 l 767 205 l 767 0 l 46 0 l 46 926 z "},"M":{"ha":1139,"x_min":46,"x_max":1093,"o":"m 257 0 l 139 0 l 46 0 l 139 351 l 169 463 l 220 660 l 291 926 l 344 845 l 441 695 l 569 499 l 697 695 l 795 845 l 848 926 l 918 660 l 970 463 l 1000 351 l 1093 0 l 1000 0 l 881 0 l 795 324 l 768 430 l 569 126 l 370 430 l 344 324 l 257 0 z "},"N":{"ha":901,"x_min":46,"x_max":855,"o":"m 46 0 l 46 663 l 46 926 l 250 760 l 450 598 l 650 436 l 650 933 l 855 933 l 855 270 l 855 7 l 650 173 l 450 335 l 250 497 l 250 0 l 46 0 z "},"O":{"ha":986,"x_min":46,"x_max":940,"o":"m 493 926 q 666 891 584 926 q 808 795 747 856 q 905 653 869 734 q 940 479 940 571 l 940 447 q 905 273 940 355 q 808 131 869 192 q 666 35 747 70 q 493 0 584 0 q 319 35 401 0 q 177 131 238 70 q 81 273 117 192 q 46 447 46 355 l 46 479 q 81 653 46 571 q 177 795 117 734 q 319 891 238 856 q 493 926 401 926 m 493 721 q 399 702 443 721 q 322 650 355 683 q 270 573 289 617 q 251 479 251 529 l 251 447 q 270 353 251 397 q 322 276 289 309 q 399 224 355 243 q 493 205 443 205 q 587 224 543 205 q 664 276 631 243 q 716 353 697 309 q 735 447 735 397 l 735 479 q 716 573 735 529 q 664 650 697 617 q 587 702 631 683 q 493 721 543 721 z "},"P":{"ha":920,"x_min":46,"x_max":874,"o":"m 566 926 q 686 901 630 926 q 783 835 742 877 q 850 738 825 794 q 874 619 874 681 q 850 499 874 555 q 783 401 825 443 q 686 335 742 359 q 566 310 630 310 l 251 310 l 251 0 l 46 0 l 46 310 l 46 926 l 251 926 l 566 926 m 566 515 q 606 523 587 515 q 639 545 625 531 q 661 578 653 559 q 669 619 669 597 q 661 658 669 640 q 639 691 653 677 q 606 713 625 705 q 566 721 587 721 l 251 721 l 251 515 l 566 515 z "},"Q":{"ha":986,"x_min":46,"x_max":940,"o":"m 493 926 q 667 891 585 926 q 809 795 748 856 q 905 653 869 734 q 940 479 940 571 l 940 447 q 907 279 940 357 q 817 140 874 200 l 937 0 l 668 0 l 644 27 q 493 0 572 0 q 319 35 401 0 q 177 131 238 70 q 81 273 117 192 q 46 447 46 355 l 46 479 q 81 653 46 571 q 177 795 117 734 q 319 891 238 856 q 493 926 401 926 m 393 319 l 662 319 l 682 296 q 721 365 707 327 q 735 447 735 404 l 735 479 q 716 573 735 529 q 664 650 697 617 q 587 702 631 683 q 493 721 543 721 q 399 702 443 721 q 322 650 355 683 q 270 573 289 617 q 251 479 251 529 l 251 447 q 270 353 251 397 q 322 276 289 309 q 398 224 355 243 q 492 205 442 205 l 393 319 z "},"R":{"ha":919,"x_min":46,"x_max":873,"o":"m 46 926 l 251 926 l 566 926 q 686 901 630 926 q 783 835 742 877 q 849 738 825 794 q 873 619 873 681 q 856 519 873 566 q 811 432 840 471 q 741 365 781 394 q 653 323 700 337 l 873 0 l 626 0 l 414 310 l 274 515 l 521 515 l 566 515 q 606 523 587 515 q 639 545 625 531 q 661 578 653 559 q 669 619 669 597 q 661 658 669 640 q 639 691 653 677 q 606 713 625 705 q 566 721 587 721 l 251 721 l 251 515 l 251 310 l 251 0 l 46 0 l 46 310 l 46 926 z "},"S":{"ha":954,"x_min":46,"x_max":907,"o":"m 253 268 q 279 223 257 241 q 329 205 300 205 l 625 205 q 656 211 642 205 q 681 227 670 217 q 698 252 692 238 q 704 282 704 267 q 681 338 704 315 q 625 361 657 361 l 382 361 l 329 361 q 251 372 289 361 q 174 407 209 384 q 112 463 139 431 q 80 511 94 485 q 58 565 66 536 q 50 603 53 583 q 46 644 46 622 q 62 735 46 692 q 104 814 77 779 q 169 876 131 850 q 251 915 206 902 q 329 926 289 926 l 625 926 q 731 905 681 926 q 819 848 781 884 q 881 763 857 811 q 907 658 905 714 l 702 658 q 675 703 697 685 q 625 721 654 721 l 329 721 q 274 699 296 721 q 251 644 251 676 q 257 613 251 627 q 274 588 263 598 q 299 571 284 577 q 329 565 313 565 l 551 565 l 625 565 q 747 538 691 565 q 843 463 804 510 q 896 361 880 418 q 907 282 907 324 q 885 173 907 224 q 825 83 863 121 q 735 22 786 44 q 625 0 683 0 l 329 0 q 251 11 289 0 q 172 48 208 23 q 109 106 136 72 q 66 181 82 140 q 47 268 50 222 l 251 268 l 253 268 z "},"T":{"ha":912,"x_min":46,"x_max":866,"o":"m 46 721 l 46 926 l 354 926 l 558 926 l 866 926 l 866 721 l 558 721 l 558 0 l 354 0 l 354 721 l 46 721 z "},"U":{"ha":912,"x_min":46,"x_max":866,"o":"m 456 0 q 298 32 372 0 q 167 119 223 64 q 79 250 111 175 q 46 410 46 325 l 46 926 l 250 926 l 250 410 q 266 330 250 368 q 311 265 282 293 q 376 221 339 237 q 456 205 414 205 q 536 221 498 205 q 601 265 573 237 q 646 330 630 293 q 662 410 662 368 l 662 926 l 866 926 l 866 410 q 833 250 866 325 q 745 120 801 176 q 615 32 690 65 q 456 0 541 0 z "},"V":{"ha":1056,"x_min":46,"x_max":1010,"o":"m 529 443 l 780 926 l 1010 926 l 958 828 l 529 0 l 46 926 l 277 926 l 529 443 z "},"W":{"ha":1392,"x_min":46,"x_max":1345,"o":"m 696 926 l 806 662 l 809 657 l 823 623 l 883 481 l 976 657 l 1082 862 l 1116 926 l 1294 926 l 1345 926 l 1312 862 l 1294 828 l 1206 657 l 986 235 l 864 0 l 761 244 l 696 399 l 631 244 l 528 0 l 406 235 l 186 657 l 98 828 l 80 862 l 46 926 l 98 926 l 277 926 l 309 862 l 416 657 l 508 481 l 583 657 l 585 662 l 696 926 z "},"X":{"ha":981,"x_min":46,"x_max":934,"o":"m 309 926 l 490 657 l 670 926 l 917 926 l 613 475 l 934 0 l 687 0 l 490 293 l 293 0 l 46 0 l 367 475 l 63 926 l 309 926 z "},"Y":{"ha":1024,"x_min":46,"x_max":978,"o":"m 46 926 l 294 926 l 513 601 l 731 926 l 978 926 l 615 387 l 615 0 l 513 0 l 410 0 l 410 387 l 46 926 z "},"Z":{"ha":978,"x_min":46,"x_max":931,"o":"m 70 926 l 683 926 l 931 926 l 791 721 l 434 205 l 931 205 l 931 0 l 294 0 l 46 0 l 187 205 l 543 721 l 70 721 l 70 926 z "},"[":{"ha":326,"x_min":23,"x_max":303,"o":"m 181 1 l 125 1 l 23 1 l 23 103 l 23 205 l 23 722 l 23 824 l 23 927 l 125 927 l 181 927 l 227 927 l 303 927 l 303 722 l 227 722 l 227 205 l 303 205 l 303 1 l 227 1 l 181 1 z "},"\\":{"ha":847,"x_min":23,"x_max":824,"o":"m 262 927 l 824 1 l 585 1 l 23 927 l 262 927 z "},"]":{"ha":326,"x_min":23,"x_max":303,"o":"m 99 1 l 23 1 l 23 205 l 99 205 l 99 722 l 23 722 l 23 927 l 99 927 l 145 927 l 201 927 l 303 927 l 303 824 l 303 722 l 303 205 l 303 103 l 303 1 l 201 1 l 145 1 l 99 1 z "},"^":{"ha":782,"x_min":23,"x_max":759,"o":"m 391 927 l 759 381 l 513 381 l 391 561 l 269 381 l 23 381 l 391 927 z "},"_":{"ha":510,"x_min":23,"x_max":487,"o":"m 23 205 l 487 205 l 487 1 l 23 1 l 23 205 z "},"`":{"ha":163,"x_min":23,"x_max":140,"o":"m 23 927 l 140 927 l 140 761 l 23 761 l 23 927 z "},"a":{"ha":1056,"x_min":46,"x_max":1010,"o":"m 528 484 l 437 308 l 276 1 l 46 1 l 528 927 l 1010 1 l 780 1 l 746 65 l 444 65 l 519 269 l 640 269 l 528 484 z "},"b":{"ha":954,"x_min":46,"x_max":907,"o":"m 251 566 l 251 361 l 251 205 l 625 205 q 680 228 657 205 q 703 283 703 251 q 680 338 703 316 q 625 361 657 361 l 581 361 l 328 361 l 402 566 l 581 566 q 636 588 613 566 q 659 644 659 611 q 653 675 659 660 q 636 700 646 689 q 611 716 625 710 q 581 722 596 722 l 251 722 l 251 566 m 818 490 q 830 477 824 483 q 842 464 836 470 q 896 361 880 419 q 907 283 907 324 q 885 174 907 225 q 825 84 863 122 q 735 23 786 45 q 625 1 683 1 l 251 1 l 46 1 l 46 361 l 46 464 l 46 566 l 46 927 l 251 927 l 581 927 q 690 905 639 927 q 781 844 742 882 q 842 753 819 805 q 864 644 864 702 q 861 604 864 623 q 853 566 857 584 q 818 490 841 526 z "},"c":{"ha":935,"x_min":46,"x_max":889,"o":"m 889 242 q 819 144 861 188 q 727 68 778 100 q 616 19 676 36 q 493 1 556 1 q 319 37 400 1 q 177 133 237 72 q 81 275 117 194 q 46 447 46 356 l 46 480 q 81 654 46 572 q 178 796 117 735 q 320 892 239 856 q 493 927 401 927 q 616 909 556 927 q 727 860 676 892 q 819 783 778 828 q 889 685 861 739 l 706 595 q 668 648 691 624 q 616 688 644 671 q 556 713 588 705 q 493 722 525 722 q 399 703 443 722 q 321 650 355 683 q 269 574 288 618 q 250 480 250 530 l 250 447 q 269 353 250 397 q 321 276 288 309 q 399 224 355 244 q 493 205 443 205 q 616 239 559 205 q 706 331 673 273 l 889 242 z "},"d":{"ha":953,"x_min":46,"x_max":906,"o":"m 703 496 q 685 584 703 543 q 636 656 667 625 q 564 704 606 686 q 477 722 523 722 l 250 722 l 250 464 l 250 205 l 477 205 q 564 223 523 205 q 636 271 606 241 q 685 343 667 302 q 703 431 703 384 l 703 464 l 703 496 m 46 1 l 46 464 l 46 927 l 250 927 l 477 927 q 591 912 536 927 q 693 868 645 896 q 780 800 741 840 q 848 713 819 761 q 891 610 876 665 q 906 496 906 556 l 906 464 l 906 431 q 873 263 906 342 q 781 127 839 185 q 644 35 722 69 q 477 1 566 1 l 250 1 l 46 1 z "},"e":{"ha":842,"x_min":46,"x_max":795,"o":"m 795 205 l 795 1 l 46 1 l 46 927 l 795 927 l 795 722 l 250 722 l 250 205 l 795 205 m 402 566 l 731 566 l 731 361 l 328 361 l 402 566 z "},"f":{"ha":843,"x_min":46,"x_max":796,"o":"m 402 566 l 731 566 l 731 361 l 328 361 l 402 566 m 251 361 l 251 283 l 251 205 l 251 1 l 46 1 l 46 205 l 46 361 l 46 464 l 46 566 l 46 722 l 46 927 l 796 927 l 796 722 l 251 722 l 251 566 l 251 361 z "},"g":{"ha":986,"x_min":46,"x_max":940,"o":"m 46 447 l 46 480 q 82 654 46 572 q 178 796 118 735 q 320 892 239 856 q 494 927 402 927 q 617 909 557 927 q 728 860 677 892 q 820 783 779 828 q 890 685 862 739 l 706 595 q 619 687 675 652 q 494 722 562 722 q 399 703 444 722 q 322 651 355 684 q 270 574 289 618 q 251 480 251 530 l 251 447 q 270 353 251 397 q 322 276 289 309 q 399 224 355 243 q 494 205 444 205 q 594 226 547 205 q 673 286 640 248 l 481 286 l 481 490 l 940 490 l 940 447 q 905 275 940 356 q 809 133 869 194 q 667 37 748 72 q 494 1 586 1 q 320 36 402 1 q 178 131 239 71 q 82 273 118 192 q 46 447 46 355 z "},"h":{"ha":905,"x_min":46,"x_max":858,"o":"m 327 361 l 402 566 l 654 566 l 654 927 l 858 927 l 858 566 l 858 361 l 858 1 l 654 1 l 654 361 l 327 361 m 250 361 l 250 1 l 46 1 l 46 361 l 46 566 l 46 927 l 250 927 l 250 566 l 250 361 z "},"i":{"ha":296,"x_min":46,"x_max":250,"o":"m 250 927 l 250 566 l 250 361 l 250 1 l 46 1 l 46 361 l 46 566 l 46 927 l 250 927 z "},"j":{"ha":795,"x_min":46,"x_max":749,"o":"m 251 205 l 298 205 l 398 205 q 461 219 431 205 q 511 258 491 234 q 527 283 520 270 q 539 311 534 296 q 544 331 542 321 q 545 352 545 342 l 545 644 l 545 722 l 545 927 l 749 927 l 749 352 q 717 205 749 274 q 663 122 696 159 q 589 57 631 84 q 500 16 548 31 q 398 1 451 1 l 373 1 l 46 1 l 46 205 l 251 205 z "},"k":{"ha":954,"x_min":46,"x_max":907,"o":"m 251 361 l 251 356 l 251 350 l 251 344 l 251 339 l 251 333 l 251 328 l 251 322 l 251 317 l 251 311 l 251 305 l 251 299 l 251 294 l 251 288 l 251 282 l 251 277 l 251 271 l 251 266 l 251 260 l 251 255 l 251 249 l 251 247 l 251 1 l 46 1 l 46 927 l 251 927 l 251 648 l 251 566 l 251 361 m 383 566 l 444 566 l 637 927 l 869 927 l 673 561 q 688 558 681 559 q 704 555 696 556 q 780 519 745 543 q 842 464 815 496 q 896 361 880 419 q 907 283 907 324 l 907 1 l 704 1 l 704 283 q 681 338 704 316 q 625 361 657 361 l 308 361 l 383 566 z "},"l":{"ha":813,"x_min":46,"x_max":767,"o":"m 46 927 l 251 927 l 251 205 l 488 205 l 562 205 l 767 205 l 767 1 l 46 1 l 46 927 z "},"m":{"ha":1139,"x_min":46,"x_max":1093,"o":"m 257 1 l 139 1 l 46 1 l 139 351 l 169 464 l 220 660 l 291 927 l 343 846 l 441 696 l 569 500 l 697 696 l 795 846 l 848 927 l 919 660 l 970 464 l 1000 351 l 1093 1 l 1000 1 l 881 1 l 795 325 l 768 431 l 569 127 l 370 431 l 343 325 l 257 1 z "},"n":{"ha":901,"x_min":46,"x_max":855,"o":"m 46 1 l 46 663 l 46 927 l 251 760 l 450 598 l 650 437 l 650 933 l 855 933 l 855 270 l 855 7 l 650 173 l 450 336 l 251 497 l 251 1 l 46 1 z "},"o":{"ha":986,"x_min":46,"x_max":940,"o":"m 493 927 q 667 892 585 927 q 809 795 748 856 q 905 653 869 734 q 940 480 940 571 l 940 447 q 905 274 940 356 q 809 132 869 193 q 667 36 748 71 q 493 1 585 1 q 319 36 401 1 q 177 132 238 71 q 81 274 117 193 q 46 447 46 356 l 46 480 q 81 653 46 571 q 177 795 117 734 q 319 892 238 856 q 493 927 401 927 m 493 722 q 399 703 443 722 q 321 651 355 684 q 269 574 288 618 q 250 480 250 530 l 250 447 q 269 353 250 397 q 321 276 288 309 q 399 224 355 243 q 493 205 443 205 q 587 224 543 205 q 664 276 631 243 q 716 353 697 309 q 735 447 735 397 l 735 480 q 716 574 735 530 q 664 651 697 618 q 587 703 631 684 q 493 722 543 722 z "},"p":{"ha":919,"x_min":46,"x_max":873,"o":"m 566 927 q 686 902 630 927 q 783 836 742 878 q 849 738 825 794 q 873 619 873 682 q 849 499 873 555 q 783 401 825 443 q 686 335 742 359 q 566 311 630 311 l 328 311 l 402 516 l 566 516 q 606 524 587 516 q 639 546 625 532 q 661 579 653 560 q 669 619 669 597 q 661 659 669 640 q 639 692 653 678 q 606 714 625 706 q 566 722 587 722 l 251 722 l 251 1 l 46 1 l 46 927 l 566 927 z "},"q":{"ha":986,"x_min":46,"x_max":940,"o":"m 494 927 q 667 892 585 927 q 809 795 748 856 q 905 653 869 734 q 940 480 940 571 l 940 447 q 907 279 940 357 q 817 140 874 201 l 937 1 l 668 1 l 644 27 q 494 1 571 1 q 319 36 401 1 q 177 132 238 71 q 81 274 117 193 q 46 447 46 356 l 46 480 q 81 653 46 571 q 177 795 117 734 q 319 892 238 856 q 494 927 401 927 m 393 320 l 662 320 l 682 296 q 721 366 707 328 q 735 447 735 405 l 735 480 q 716 574 735 530 q 664 651 697 618 q 588 703 631 684 q 494 722 544 722 q 400 703 444 722 q 322 651 356 684 q 270 574 289 618 q 251 480 251 530 l 251 447 q 270 353 251 397 q 322 276 289 309 q 398 224 355 244 q 492 205 442 205 l 393 320 z "},"r":{"ha":920,"x_min":46,"x_max":874,"o":"m 46 927 l 251 927 l 566 927 q 686 902 630 927 q 783 836 742 878 q 850 738 825 794 q 874 619 874 682 q 857 519 874 567 q 811 433 841 472 q 741 366 781 394 q 653 324 700 338 l 874 1 l 626 1 l 414 311 l 406 324 l 332 324 l 402 516 l 501 516 l 521 516 l 566 516 q 606 524 587 516 q 639 546 625 532 q 661 579 653 560 q 669 619 669 597 q 661 659 669 640 q 639 692 653 678 q 606 714 625 706 q 566 722 587 722 l 251 722 l 251 516 l 251 324 l 251 311 l 251 1 l 46 1 l 46 311 l 46 927 z "},"s":{"ha":953,"x_min":46,"x_max":906,"o":"m 252 268 q 278 223 256 241 q 328 205 300 205 l 624 205 q 680 228 656 205 q 703 283 703 251 q 697 313 703 299 q 680 338 691 328 q 655 355 669 349 q 624 361 641 361 l 382 361 l 328 361 q 288 364 307 361 q 250 372 269 368 q 173 408 208 384 q 111 464 138 431 q 56 566 74 506 q 46 644 46 605 q 62 736 46 692 q 104 815 77 780 q 169 877 131 851 q 250 915 206 903 q 288 924 269 920 q 328 927 307 927 l 624 927 q 731 906 681 927 q 819 849 781 885 q 880 763 856 812 q 906 659 904 715 l 701 659 q 674 704 695 686 q 624 722 653 722 l 328 722 q 298 716 312 722 q 273 700 283 710 q 256 675 262 689 q 250 644 250 660 q 273 588 250 611 q 328 566 295 566 l 550 566 l 624 566 q 746 538 690 566 q 842 464 802 511 q 895 361 879 419 q 906 283 906 324 q 884 174 906 225 q 824 84 862 122 q 734 23 785 45 q 624 1 682 1 l 328 1 q 250 12 288 1 q 171 49 207 24 q 108 106 135 73 q 65 181 81 140 q 46 268 49 222 l 250 268 l 252 268 z "},"t":{"ha":912,"x_min":46,"x_max":866,"o":"m 46 722 l 46 927 l 354 927 l 558 927 l 866 927 l 866 722 l 558 722 l 558 1 l 354 1 l 354 722 l 46 722 z "},"u":{"ha":912,"x_min":46,"x_max":866,"o":"m 662 56 q 564 15 616 30 q 456 1 512 1 q 348 15 400 1 q 251 56 296 30 q 168 121 206 83 q 103 204 130 158 q 61 302 76 250 q 46 411 46 355 l 46 927 l 251 927 l 251 722 l 251 411 q 267 331 251 369 q 311 265 283 294 q 376 221 339 237 q 456 205 414 205 q 536 221 498 205 q 601 265 573 237 q 646 331 630 294 q 662 411 662 369 l 662 722 l 662 927 l 866 927 l 866 411 q 851 302 866 355 q 809 204 836 250 q 745 121 782 158 q 662 56 707 83 z "},"v":{"ha":1056,"x_min":46,"x_max":1010,"o":"m 528 443 l 780 927 l 1010 927 l 644 221 l 528 1 l 46 927 l 277 927 l 528 443 z "},"w":{"ha":1392,"x_min":46,"x_max":1345,"o":"m 696 927 l 883 481 l 1115 927 l 1345 927 l 864 1 l 696 400 l 528 1 l 46 927 l 277 927 l 508 481 l 696 927 z "},"x":{"ha":980,"x_min":46,"x_max":933,"o":"m 309 926 l 490 658 l 670 926 l 917 926 l 613 475 l 933 0 l 687 0 l 490 293 l 293 0 l 46 0 l 367 475 l 63 926 l 309 926 z "},"y":{"ha":1024,"x_min":46,"x_max":978,"o":"m 46 926 l 293 926 l 512 601 l 731 926 l 978 926 l 615 387 l 615 0 l 410 0 l 410 387 l 46 926 z "},"z":{"ha":978,"x_min":46,"x_max":931,"o":"m 70 926 l 683 926 l 931 926 l 791 722 l 434 205 l 931 205 l 931 0 l 294 0 l 46 0 l 186 205 l 543 722 l 70 722 l 70 926 z "},"{":{"ha":432,"x_min":23,"x_max":409,"o":"m 231 1 q 192 9 210 1 q 159 31 173 18 q 138 64 145 45 q 130 104 130 82 l 130 206 l 130 372 l 23 464 l 130 556 l 130 723 l 130 825 q 138 865 130 846 q 159 897 145 883 q 192 919 173 911 q 231 927 210 927 l 333 927 l 409 927 l 409 723 l 333 723 l 333 517 l 273 464 l 333 412 l 333 206 l 409 206 l 409 1 l 333 1 l 231 1 z "},"|":{"ha":251,"x_min":23,"x_max":228,"o":"m 228 927 l 228 1 l 23 1 l 23 927 l 228 927 z "},"}":{"ha":431,"x_min":23,"x_max":408,"o":"m 98 1 l 23 1 l 23 206 l 98 206 l 98 412 l 158 464 l 98 517 l 98 723 l 23 723 l 23 927 l 98 927 l 200 927 q 240 919 221 927 q 272 897 258 911 q 294 865 286 883 q 303 825 303 846 l 303 723 l 303 556 l 408 464 l 303 372 l 303 206 l 303 104 q 294 64 303 82 q 272 31 286 45 q 240 9 258 18 q 200 1 221 1 l 98 1 z "},"~":{"ha":689,"x_min":23,"x_max":666,"o":"m 23 567 l 306 567 l 233 493 l 421 567 l 666 567 l 666 362 l 383 362 l 455 436 l 268 362 l 23 362 l 23 567 z "},"¡":{"ha":250,"x_min":23,"x_max":227,"o":"m 227 772 l 23 772 l 23 927 l 227 927 l 227 772 m 227 1 l 23 1 l 23 714 l 227 714 l 227 1 z "},"¢":{"ha":889,"x_min":23,"x_max":866,"o":"m 734 307 l 866 243 q 796 144 838 189 q 704 68 755 100 q 593 19 653 36 q 469 1 533 1 q 417 4 443 1 q 368 13 392 7 l 330 -75 l 107 -75 l 184 105 q 101 196 137 144 q 45 307 66 247 q 23 448 23 373 l 23 464 l 23 481 q 45 621 23 555 q 116 753 69 694 q 227 855 163 813 q 341 908 280 889 q 469 927 403 927 q 502 925 486 927 q 533 922 518 924 l 569 1004 l 791 1004 l 723 847 q 866 686 813 783 l 734 621 l 682 596 q 666 621 676 609 q 654 637 660 630 q 640 652 647 644 l 597 551 l 450 206 q 460 206 455 206 q 469 206 465 206 q 582 233 531 206 q 666 307 633 260 q 682 332 676 319 l 734 307 m 409 631 l 448 722 q 348 690 394 718 q 272 621 303 663 q 239 556 251 592 q 227 481 227 519 l 227 464 l 227 448 q 238 374 227 409 q 271 308 250 338 l 409 631 z "},"£":{"ha":907,"x_min":23,"x_max":884,"o":"m 884 1 l 23 1 l 110 206 l 178 362 l 31 362 l 31 567 l 178 567 l 110 723 l 23 927 l 245 927 l 884 927 l 884 723 l 332 723 l 405 567 l 538 567 l 538 362 l 406 362 l 332 206 l 884 206 l 884 1 z "},"¤":{"ha":681,"x_min":23,"x_max":658,"o":"m 341 707 q 393 702 368 707 q 441 686 418 696 l 536 781 l 658 660 l 562 564 q 584 464 584 519 q 562 364 584 410 l 658 269 l 536 146 l 441 243 q 341 221 394 221 q 241 243 288 221 l 145 146 l 23 269 l 119 364 q 103 412 108 387 q 97 464 97 437 q 103 516 97 491 q 119 564 108 541 l 23 660 l 145 781 l 241 686 q 289 702 264 696 q 341 707 314 707 m 341 534 q 291 514 311 534 q 270 464 270 494 q 291 414 270 434 q 341 394 311 394 q 391 414 370 394 q 411 464 411 434 q 391 514 411 494 q 341 534 370 534 z "},"¥":{"ha":978,"x_min":23,"x_max":955,"o":"m 337 463 l 37 463 l 37 667 l 199 667 l 23 927 l 270 927 l 489 602 l 708 927 l 955 927 l 780 667 l 941 667 l 941 463 l 642 463 l 591 388 l 941 388 l 941 183 l 591 183 l 591 1 l 489 1 l 387 1 l 387 183 l 37 183 l 37 388 l 387 388 l 337 463 z "},"¦":{"ha":250,"x_min":23,"x_max":227,"o":"m 227 927 l 227 506 l 23 506 l 23 927 l 227 927 m 227 421 l 227 1 l 23 1 l 23 421 l 227 421 z "},"§":{"ha":682,"x_min":23,"x_max":659,"o":"m 63 587 q 33 651 43 618 q 27 680 29 665 q 25 710 25 694 q 37 780 25 746 q 69 840 48 813 q 118 888 89 868 q 181 918 146 907 q 240 926 210 926 l 443 926 q 523 910 485 926 q 590 867 561 894 q 638 802 619 839 q 657 722 656 765 l 659 698 l 476 698 l 472 716 q 462 734 470 727 q 443 741 453 741 l 240 741 q 218 732 227 741 q 209 710 209 723 q 218 688 209 697 q 240 680 227 680 l 443 680 l 447 680 l 448 680 l 453 680 l 454 680 l 458 680 q 463 679 460 679 l 464 679 q 466 678 466 679 q 469 678 467 678 l 469 678 l 474 678 q 479 677 476 677 q 483 676 481 676 l 484 676 q 489 675 486 675 l 490 675 q 492 674 491 674 q 494 673 493 674 l 495 673 q 497 673 496 673 q 499 672 498 672 q 504 671 501 671 l 505 670 q 506 670 506 670 q 508 669 507 669 l 510 669 q 512 668 511 669 q 514 668 512 668 l 515 668 q 517 667 516 667 q 519 666 518 667 l 519 666 q 523 664 519 666 l 524 664 q 526 663 525 663 q 528 662 527 663 l 529 661 q 531 661 531 661 q 532 660 531 660 l 533 659 q 537 657 535 659 q 540 656 539 656 q 542 656 541 656 l 543 656 q 544 654 544 655 q 546 653 545 654 l 547 653 q 550 651 549 651 l 551 650 q 555 648 553 650 l 556 647 q 559 645 557 647 l 560 644 q 562 644 561 644 q 563 643 562 644 l 564 642 q 566 641 566 642 q 567 640 567 641 l 568 640 l 568 639 q 571 637 569 639 l 572 636 l 575 633 l 576 633 q 578 632 577 632 q 580 631 579 631 l 580 630 q 582 628 583 628 l 583 627 q 587 624 585 626 l 587 623 q 589 622 588 622 q 591 620 590 621 l 592 619 l 594 617 l 597 614 l 598 613 l 601 610 l 602 609 q 603 607 603 608 q 605 606 604 606 q 606 604 606 605 q 607 602 606 603 l 608 602 q 610 600 609 601 q 611 598 610 599 q 615 594 612 596 q 618 590 615 593 q 619 588 619 589 q 620 586 619 587 l 620 585 q 621 584 621 584 q 623 581 621 583 q 625 578 625 580 l 626 577 q 628 573 628 575 l 629 573 q 631 569 629 571 l 631 569 q 632 567 631 568 q 633 565 632 566 l 633 564 q 635 560 635 562 q 637 556 637 556 l 638 556 q 640 551 638 553 q 641 548 641 549 q 642 546 641 547 l 642 545 q 643 544 643 544 q 644 542 643 543 q 644 539 644 540 q 645 537 644 538 l 645 536 q 646 534 646 535 q 647 532 646 533 l 647 531 q 648 529 648 530 q 649 527 648 529 l 650 523 l 650 521 q 651 517 651 520 q 652 514 652 515 q 653 512 652 514 q 653 509 653 510 q 654 507 654 508 l 654 506 q 654 504 654 505 q 655 502 655 504 q 655 499 655 500 q 656 497 656 498 l 656 496 q 656 494 656 494 q 656 492 656 493 q 657 486 656 488 l 657 481 l 657 476 q 658 464 658 471 q 648 399 658 431 q 619 341 638 368 q 649 278 640 311 q 656 248 654 263 q 658 218 658 233 q 641 134 658 173 q 595 65 624 94 q 526 19 566 36 q 443 2 487 2 l 240 2 q 210 4 224 2 q 181 11 195 6 q 119 39 147 20 q 71 84 92 58 q 39 141 51 109 q 25 206 27 172 l 23 231 l 206 231 l 210 212 q 221 194 212 202 q 240 187 230 187 l 443 187 q 464 196 456 187 q 473 218 473 205 q 464 239 473 231 q 443 248 456 248 l 240 248 q 181 257 208 248 q 75 326 117 276 q 33 405 46 360 q 27 434 29 419 q 25 464 25 448 q 63 587 25 532 m 464 486 l 462 487 l 462 488 l 461 488 l 460 489 l 459 489 l 458 490 l 457 491 l 456 491 l 456 492 l 455 493 l 454 493 l 453 493 l 452 494 l 451 494 l 450 494 l 449 494 l 448 494 l 447 494 l 446 494 l 445 494 l 444 494 l 444 494 l 240 494 q 218 486 227 494 q 209 464 209 477 q 218 442 209 451 q 240 433 227 433 l 443 433 q 464 442 456 433 q 473 464 473 451 q 472 470 473 468 l 472 471 l 472 473 l 471 474 l 470 475 l 470 476 l 470 477 l 469 478 l 469 479 l 469 480 l 468 481 l 467 482 l 466 483 l 466 484 l 465 484 l 465 485 l 464 486 z "},"¨":{"ha":451,"x_min":23,"x_max":428,"o":"m 106 926 q 165 902 141 926 q 189 843 189 878 q 165 784 189 808 q 106 760 141 760 q 47 784 71 760 q 23 843 23 808 q 47 902 23 878 q 106 926 71 926 m 344 926 q 403 902 379 926 q 428 843 428 878 q 403 784 428 808 q 344 760 379 760 q 285 784 309 760 q 261 843 261 808 q 285 902 261 878 q 344 926 309 926 z "},"©":{"ha":1087,"x_min":23,"x_max":1064,"o":"m 544 985 q 746 944 652 985 q 912 833 841 904 q 1023 667 982 762 q 1064 464 1064 572 q 1023 261 1064 356 q 912 96 982 167 q 746 -16 841 25 q 544 -56 652 -56 q 341 -16 435 -56 q 175 96 246 25 q 64 261 105 167 q 23 464 23 356 q 64 667 23 572 q 175 833 105 762 q 341 944 246 904 q 544 985 435 985 m 688 379 q 678 363 684 370 q 623 315 656 333 q 551 297 590 297 q 479 315 512 297 q 424 363 445 333 q 402 405 410 381 q 394 454 394 429 l 394 464 l 394 475 q 402 523 394 500 q 424 565 410 546 q 479 613 445 594 q 551 631 512 631 q 623 613 590 631 q 678 565 656 594 q 688 549 684 557 l 721 565 l 806 606 q 762 670 789 642 q 702 719 735 699 q 631 751 669 740 q 551 763 593 763 q 468 750 507 763 q 394 716 429 738 q 324 650 354 689 q 278 565 294 612 q 267 521 270 544 q 263 475 263 499 l 263 464 l 263 454 q 267 407 263 430 q 278 363 270 384 q 324 277 294 316 q 394 212 354 239 q 468 178 429 190 q 551 166 507 166 q 631 177 593 166 q 702 209 669 188 q 762 258 735 230 q 806 321 789 287 l 721 363 l 688 379 m 544 827 q 402 799 469 827 q 287 721 336 770 q 209 605 238 671 q 181 464 181 539 q 209 323 181 389 q 287 207 238 256 q 402 130 336 158 q 544 101 469 101 q 685 130 619 101 q 800 207 751 158 q 878 323 850 256 q 906 464 906 389 q 878 605 906 539 q 800 721 850 671 q 685 799 751 770 q 544 827 619 827 z "},"ª":{"ha":495,"x_min":23,"x_max":472,"o":"m 161 522 l 147 494 l 23 494 l 248 926 l 472 494 l 348 494 l 334 522 l 161 522 m 277 631 l 248 688 l 219 631 l 277 631 z "},"«":{"ha":886,"x_min":23,"x_max":863,"o":"m 334 464 l 437 395 l 437 185 l 23 464 l 437 744 l 437 533 l 334 464 m 760 464 l 863 395 l 863 185 l 449 464 l 863 744 l 863 533 l 760 464 z "},"¬":{"ha":879,"x_min":23,"x_max":856,"o":"m 651 452 l 23 452 l 23 656 l 856 656 l 856 271 l 651 271 l 651 452 z "},"®":{"ha":1088,"x_min":23,"x_max":1065,"o":"m 544 985 q 747 944 652 985 q 913 833 842 904 q 1024 667 983 762 q 1065 464 1065 572 q 1024 261 1065 356 q 913 96 983 167 q 747 -16 842 25 q 544 -56 652 -56 q 341 -16 436 -56 q 175 96 246 25 q 64 261 105 167 q 23 464 23 356 q 64 667 23 572 q 175 833 105 762 q 341 944 246 904 q 544 985 436 985 m 332 382 l 332 215 l 443 215 l 443 382 l 443 492 l 443 603 l 613 603 q 652 587 636 603 q 669 547 669 570 q 652 508 669 525 q 613 492 636 492 l 589 492 l 456 492 l 531 382 l 645 215 l 779 215 l 659 389 q 707 412 685 396 q 745 448 729 427 q 770 494 761 469 q 779 547 779 519 q 766 612 779 581 q 730 664 753 642 q 677 700 707 687 q 613 713 647 713 l 443 713 l 332 713 l 332 382 m 544 827 q 402 799 469 827 q 287 721 336 770 q 209 605 238 671 q 181 464 181 539 q 209 323 181 389 q 287 207 238 256 q 402 130 336 158 q 544 101 469 101 q 685 130 619 101 q 801 207 752 158 q 879 323 850 256 q 907 464 907 389 q 879 605 907 539 q 801 721 850 671 q 685 799 752 770 q 544 827 619 827 z "},"¯":{"ha":597,"x_min":23,"x_max":574,"o":"m 23 926 l 574 926 l 574 722 l 23 722 l 23 926 z "},"°":{"ha":533,"x_min":23,"x_max":510,"o":"m 267 707 q 361 688 317 707 q 439 637 406 669 q 491 559 472 604 q 510 464 510 515 q 491 369 510 414 q 439 292 472 325 q 361 239 406 258 q 267 220 317 220 q 171 239 216 220 q 94 292 127 258 q 42 369 61 325 q 23 464 23 414 q 42 559 23 515 q 94 637 61 604 q 171 688 127 669 q 267 707 216 707 m 267 534 q 217 514 237 534 q 196 464 196 494 q 217 414 196 434 q 267 394 237 394 q 317 414 296 394 q 337 464 337 434 q 317 514 337 494 q 267 534 296 534 z "},"±":{"ha":510,"x_min":23,"x_max":487,"o":"m 357 719 l 487 719 l 487 515 l 357 515 l 357 385 l 153 385 l 153 515 l 23 515 l 23 719 l 153 719 l 153 849 l 357 849 l 357 719 m 23 79 l 487 79 l 487 283 l 23 283 l 23 79 z "},"²":{"ha":494,"x_min":23,"x_max":471,"o":"m 413 656 l 334 586 l 471 586 l 471 468 l 23 468 l 338 748 l 338 749 q 353 775 353 758 q 343 798 353 788 q 320 807 333 807 l 194 807 q 172 798 181 807 q 162 775 162 788 l 162 762 l 44 762 l 44 775 q 72 864 44 825 q 147 919 101 903 q 194 926 171 926 l 320 926 q 379 914 352 926 q 427 881 406 902 q 459 834 447 861 q 471 775 471 806 q 456 709 471 740 q 413 656 441 678 z "},"³":{"ha":474,"x_min":23,"x_max":451,"o":"m 423 696 q 445 652 438 678 q 451 611 451 632 q 439 556 451 581 q 408 510 428 530 q 363 479 389 491 q 306 468 336 468 l 168 468 q 128 473 147 468 q 52 525 81 486 q 23 611 23 563 l 23 631 l 142 631 l 142 611 q 150 594 142 601 q 168 586 157 586 l 306 586 q 325 594 317 586 q 332 611 332 601 q 325 630 332 622 q 307 637 318 637 l 194 637 l 194 756 l 307 756 q 325 764 318 756 q 332 781 332 771 q 325 800 332 792 q 306 807 317 807 l 168 807 q 150 800 157 807 q 142 781 142 792 l 142 762 l 23 762 l 23 781 q 52 869 23 830 q 128 920 81 907 q 168 926 147 926 l 306 926 q 363 914 336 926 q 408 883 389 903 q 439 838 428 864 q 451 781 451 811 q 445 742 451 761 q 423 696 438 717 z "},"´":{"ha":217,"x_min":23,"x_max":192,"o":"m 23 926 l 190 926 q 177 823 192 857 q 138 774 162 788 q 84 761 115 760 q 23 761 54 761 l 85 839 l 23 839 l 23 926 z "},"µ":{"ha":867,"x_min":23,"x_max":844,"o":"m 23 927 l 228 927 l 228 564 q 244 484 228 521 q 288 419 260 446 q 353 375 316 391 q 433 358 391 358 q 513 375 476 358 q 579 419 551 391 q 624 484 607 446 q 640 564 640 521 l 640 876 l 640 927 l 844 927 l 844 564 q 829 455 844 507 q 787 357 814 403 q 723 274 760 311 q 640 209 685 236 q 542 168 594 182 q 433 154 490 154 q 325 168 377 154 q 228 209 274 182 l 228 1 l 23 1 l 23 564 l 23 927 z "},"¶":{"ha":1191,"x_min":23,"x_max":1168,"o":"m 963 927 l 1168 927 l 1168 723 l 1168 1 l 963 1 l 963 723 l 850 723 l 850 312 l 850 1 l 645 1 l 645 312 l 331 312 q 211 336 267 312 q 113 402 155 360 q 47 500 71 444 q 23 619 23 556 q 47 739 23 683 q 113 837 71 795 q 211 903 155 879 q 331 927 267 927 l 606 927 l 850 927 l 963 927 z "},"·":{"ha":212,"x_min":23,"x_max":189,"o":"m 106 381 q 47 405 71 381 q 23 464 23 430 q 47 523 23 499 q 106 547 71 547 q 165 523 141 547 q 189 464 189 499 q 165 405 189 430 q 106 381 141 381 z "},"∙":{"ha":212,"x_min":23,"x_max":189,"o":"m 106 381 q 47 405 71 381 q 23 464 23 430 q 47 523 23 499 q 106 547 71 547 q 165 523 141 547 q 189 464 189 499 q 165 405 189 430 q 106 381 141 381 z "},"¸":{"ha":405,"x_min":23,"x_max":383,"o":"m 242 259 q 303 241 273 255 q 353 203 332 228 q 379 140 376 174 q 364 74 383 105 q 335 40 353 54 q 297 17 318 26 q 253 4 276 8 q 208 -1 231 0 l 189 -1 q 133 9 161 1 q 81 32 106 17 q 44 71 58 49 q 25 121 30 94 l 23 131 l 120 131 l 122 126 q 136 111 127 119 q 163 100 148 104 q 194 95 179 96 q 200 94 196 94 q 206 94 203 94 q 225 96 214 94 q 247 100 236 97 q 268 109 258 104 q 281 122 277 114 q 283 131 284 127 q 282 137 283 134 q 279 143 281 140 q 259 157 271 152 q 234 164 247 162 q 208 166 221 167 q 183 165 194 166 l 112 156 l 164 335 l 263 335 l 242 259 z "},"¹":{"ha":231,"x_min":23,"x_max":207,"o":"m 88 693 l 23 645 l 23 793 l 207 926 l 207 456 l 88 456 l 88 693 z "},"º":{"ha":447,"x_min":23,"x_max":424,"o":"m 224 926 q 302 910 266 926 q 365 867 338 894 q 408 804 393 840 q 424 726 424 768 l 424 668 q 408 590 424 626 q 365 526 393 554 q 302 483 338 499 q 224 468 266 468 q 146 483 182 468 q 82 526 109 499 q 39 590 55 554 q 23 668 23 626 l 23 726 q 39 804 23 768 q 82 867 55 840 q 146 910 109 894 q 224 926 182 926 m 224 807 q 193 801 207 807 q 167 783 178 794 q 149 757 156 772 q 143 726 143 743 l 143 668 q 167 610 143 633 q 224 586 191 586 q 281 610 257 586 q 306 668 306 633 l 306 726 q 299 757 306 743 q 281 783 293 772 q 256 801 270 794 q 224 807 241 807 z "},"»":{"ha":886,"x_min":23,"x_max":863,"o":"m 449 533 l 449 744 l 863 464 l 449 185 l 449 395 l 552 464 l 449 533 m 23 533 l 23 744 l 437 464 l 23 185 l 23 395 l 126 464 l 23 533 z "},"¼":{"ha":947,"x_min":23,"x_max":924,"o":"m 844 924 l 281 -2 l 42 -2 l 604 924 l 844 924 m 885 457 l 772 457 l 484 74 l 767 74 l 767 -2 l 885 -2 l 885 74 l 924 74 l 924 193 l 885 193 l 885 457 m 767 193 l 722 193 l 767 252 l 767 193 m 88 455 l 206 455 l 206 924 l 23 790 l 23 644 l 88 691 l 88 455 z "},"½":{"ha":1056,"x_min":23,"x_max":1032,"o":"m 974 187 q 1017 240 1002 208 q 1032 306 1032 271 q 1020 365 1032 337 q 988 413 1008 393 q 940 445 968 433 q 881 457 913 457 l 755 457 q 708 449 731 457 q 633 394 661 433 q 605 306 605 356 l 605 293 l 723 293 l 723 306 q 732 329 723 319 q 755 338 742 338 l 881 338 q 904 329 894 338 q 914 306 914 319 q 900 280 914 291 l 899 280 l 584 -2 l 1032 -2 l 1032 117 l 895 117 l 974 187 m 88 455 l 206 455 l 206 924 l 23 790 l 23 644 l 88 691 l 88 455 m 843 924 l 281 -2 l 42 -2 l 604 924 l 843 924 z "},"¾":{"ha":1107,"x_min":23,"x_max":1084,"o":"m 424 694 q 445 650 439 672 q 452 609 452 631 q 440 554 452 580 q 409 508 429 528 q 363 477 390 489 q 307 466 337 466 l 168 466 q 148 467 157 466 q 128 471 138 468 q 52 523 81 484 q 23 609 23 561 l 23 629 l 143 629 l 143 609 q 150 592 143 599 q 168 584 157 584 l 307 584 q 325 592 318 584 q 332 609 332 599 q 325 627 332 619 q 307 635 318 635 l 194 635 l 194 754 l 307 754 q 325 762 318 754 q 332 780 332 769 q 325 798 332 790 q 307 806 318 806 l 168 806 q 150 798 157 806 q 143 780 143 790 l 143 760 l 23 760 l 23 780 q 31 826 23 804 q 53 867 39 848 q 86 899 67 885 q 128 919 105 912 q 168 924 147 924 l 307 924 q 363 913 337 924 q 409 881 390 901 q 440 836 429 862 q 452 780 452 809 q 445 740 452 758 q 424 694 439 717 m 1045 193 l 1084 193 l 1084 74 l 1045 74 l 1045 -2 l 926 -2 l 926 74 l 644 74 l 931 457 l 1045 457 l 1045 193 m 926 252 l 882 193 l 926 193 l 926 252 m 764 924 l 202 -2 l 441 -2 l 1003 924 l 764 924 z "},"¿":{"ha":754,"x_min":23,"x_max":731,"o":"m 381 924 l 585 924 l 585 769 l 381 769 l 381 924 m 585 386 l 381 386 l 319 386 q 284 379 301 386 q 255 359 268 371 q 235 330 243 346 q 228 294 228 313 q 235 259 228 276 q 255 230 243 243 q 284 210 268 218 q 319 203 301 203 l 381 203 l 585 203 l 619 203 l 681 203 l 731 203 l 731 -2 l 681 -2 l 619 -2 l 585 -2 l 319 -2 q 226 13 270 -2 q 144 56 181 29 q 80 121 107 83 q 38 203 53 158 q 27 247 31 224 q 23 294 23 270 q 47 410 23 356 q 111 504 70 464 q 205 568 151 544 q 319 591 258 591 l 381 591 l 381 711 l 585 711 l 585 591 l 585 386 z "},"À":{"ha":1056,"x_min":46,"x_max":1010,"o":"m 613 1211 l 667 1031 l 495 1031 l 390 1211 l 613 1211 m 529 481 l 417 267 l 641 267 l 529 481 m 277 -2 l 98 -2 l 46 -2 l 80 62 l 98 97 l 186 267 l 414 703 l 529 924 l 644 703 l 870 267 l 959 97 l 977 62 l 1010 -2 l 959 -2 l 780 -2 l 746 62 l 310 62 l 277 -2 z "},"Á":{"ha":1056,"x_min":46,"x_max":1009,"o":"m 528 481 l 416 267 l 640 267 l 528 481 m 444 1211 l 390 1031 l 561 1031 l 666 1211 l 444 1211 m 276 -2 l 97 -2 l 46 -2 l 80 62 l 97 97 l 185 267 l 413 703 l 528 924 l 643 703 l 870 267 l 958 97 l 976 62 l 1009 -2 l 958 -2 l 780 -2 l 746 62 l 309 62 l 276 -2 z "},"Â":{"ha":1056,"x_min":46,"x_max":1009,"o":"m 528 481 l 417 267 l 640 267 l 528 481 m 574 1031 l 727 1031 l 528 1325 l 330 1031 l 481 1031 l 528 1099 l 574 1031 m 277 -2 l 98 -2 l 46 -2 l 80 62 l 98 97 l 186 267 l 413 703 l 528 924 l 644 703 l 870 267 l 958 97 l 977 62 l 1009 -2 l 958 -2 l 780 -2 l 746 62 l 310 62 l 277 -2 z "},"Ã":{"ha":1056,"x_min":46,"x_max":1010,"o":"m 529 481 l 417 267 l 641 267 l 529 481 m 339 1031 l 482 1031 l 594 1093 l 552 1031 l 719 1031 l 719 1202 l 574 1202 l 463 1140 l 506 1202 l 339 1202 l 339 1031 m 277 -2 l 98 -2 l 46 -2 l 80 62 l 98 97 l 186 267 l 413 703 l 529 924 l 644 703 l 870 267 l 959 97 l 977 62 l 1010 -2 l 959 -2 l 780 -2 l 746 62 l 310 62 l 277 -2 z "},"Ä":{"ha":1056,"x_min":46,"x_max":1010,"o":"m 529 481 l 417 267 l 641 267 l 529 481 m 356 1031 l 501 1031 l 501 1202 l 356 1202 l 356 1031 m 556 1031 l 701 1031 l 701 1202 l 556 1202 l 556 1031 m 277 -2 l 98 -2 l 46 -2 l 80 62 l 98 97 l 186 267 l 414 703 l 529 924 l 644 703 l 870 267 l 959 97 l 977 62 l 1010 -2 l 959 -2 l 781 -2 l 747 62 l 310 62 l 277 -2 z "},"Å":{"ha":1056,"x_min":46,"x_max":1009,"o":"m 640 267 l 528 481 l 416 267 l 640 267 m 528 1144 q 594 1130 563 1144 q 647 1094 624 1117 q 683 1041 669 1071 q 696 975 696 1010 q 665 876 696 919 q 584 816 633 833 l 644 703 l 870 267 l 958 97 l 976 62 l 1009 -2 l 958 -2 l 780 -2 l 746 62 l 309 62 l 277 -2 l 97 -2 l 46 -2 l 80 62 l 97 97 l 185 267 l 413 703 l 472 816 q 391 876 422 833 q 359 975 359 919 q 373 1041 359 1010 q 409 1094 386 1071 q 463 1130 431 1117 q 528 1144 494 1144 m 528 1023 q 494 1009 507 1023 q 480 975 480 995 q 494 940 480 955 q 528 926 507 926 q 563 940 548 926 q 577 975 577 955 q 563 1009 577 995 q 528 1023 548 1023 z "},"Æ":{"ha":1576,"x_min":46,"x_max":1530,"o":"m 780 359 l 780 461 l 780 563 l 780 719 l 780 739 l 479 267 l 780 267 l 780 359 m 984 203 l 1530 203 l 1530 -2 l 1010 -2 l 959 -2 l 780 -2 l 780 62 l 350 62 l 307 -2 l 98 -2 l 46 -2 l 637 924 l 780 924 l 859 924 l 1530 924 l 1530 719 l 984 719 l 984 563 l 1465 563 l 1465 359 l 984 359 l 984 203 z "},"Ç":{"ha":935,"x_min":46,"x_max":889,"o":"m 757 304 l 889 240 q 824 146 862 189 q 737 71 785 103 q 633 21 689 40 q 517 -1 578 2 l 507 -35 q 569 -53 540 -40 q 619 -92 598 -67 q 645 -154 642 -120 q 631 -220 648 -188 q 601 -255 619 -241 q 563 -277 583 -269 q 519 -290 542 -286 q 475 -294 497 -294 q 465 -295 470 -295 q 455 -294 460 -294 q 399 -285 427 -293 q 348 -261 371 -277 q 291 -173 301 -229 l 289 -164 l 386 -164 l 389 -169 q 402 -182 393 -177 q 430 -194 415 -191 q 460 -199 445 -198 l 472 -199 q 492 -198 481 -199 q 514 -194 503 -196 q 534 -186 525 -191 q 548 -172 544 -181 q 550 -163 550 -167 q 544 -152 549 -157 q 525 -137 537 -143 q 500 -131 514 -132 q 474 -129 487 -129 q 449 -130 460 -129 l 378 -138 l 419 4 q 250 70 324 20 q 139 172 186 112 q 69 304 93 231 q 46 445 46 370 l 46 461 l 46 478 q 69 619 46 552 q 139 750 93 691 q 250 852 186 810 q 364 905 303 886 q 493 924 426 924 q 616 906 556 924 q 727 857 676 889 q 819 781 778 825 q 889 683 861 737 l 757 619 l 706 593 q 698 606 702 600 q 690 619 694 612 q 605 692 656 665 q 493 719 554 719 q 380 692 431 719 q 295 619 329 665 q 262 553 274 589 q 250 478 250 517 l 250 461 l 250 445 q 262 369 250 406 q 295 304 274 333 q 380 230 329 257 q 493 203 431 203 q 605 230 554 203 q 690 304 656 257 q 698 316 694 310 q 706 330 702 322 l 757 304 z "},"È":{"ha":843,"x_min":46,"x_max":796,"o":"m 251 203 l 796 203 l 796 -2 l 46 -2 l 46 203 l 46 359 l 46 461 l 46 563 l 46 719 l 46 924 l 796 924 l 796 719 l 251 719 l 251 563 l 731 563 l 731 359 l 251 359 l 251 203 m 506 1211 l 560 1031 l 389 1031 l 283 1211 l 506 1211 z "},"É":{"ha":842,"x_min":46,"x_max":795,"o":"m 250 203 l 795 203 l 795 -2 l 46 -2 l 46 203 l 46 359 l 46 461 l 46 563 l 46 719 l 46 924 l 795 924 l 795 719 l 250 719 l 250 563 l 731 563 l 731 359 l 250 359 l 250 203 m 336 1211 l 282 1031 l 454 1031 l 559 1211 l 336 1211 z "},"Ê":{"ha":842,"x_min":46,"x_max":795,"o":"m 250 203 l 795 203 l 795 -2 l 46 -2 l 46 203 l 46 359 l 46 461 l 46 563 l 46 719 l 46 924 l 795 924 l 795 719 l 250 719 l 250 563 l 731 563 l 731 359 l 250 359 l 250 203 m 468 1031 l 619 1031 l 421 1325 l 222 1031 l 375 1031 l 421 1099 l 468 1031 z "},"Ë":{"ha":843,"x_min":46,"x_max":796,"o":"m 251 203 l 796 203 l 796 -2 l 46 -2 l 46 203 l 46 359 l 46 461 l 46 563 l 46 719 l 46 924 l 796 924 l 796 719 l 251 719 l 251 563 l 731 563 l 731 359 l 251 359 l 251 203 m 249 1031 l 394 1031 l 394 1202 l 249 1202 l 249 1031 m 449 1031 l 594 1031 l 594 1202 l 449 1202 l 449 1031 z "},"Ì":{"ha":369,"x_min":46,"x_max":322,"o":"m 286 924 l 286 563 l 286 359 l 286 -2 l 82 -2 l 82 359 l 82 563 l 82 924 l 286 924 m 269 1211 l 322 1031 l 151 1031 l 46 1211 l 269 1211 z "},"Í":{"ha":369,"x_min":46,"x_max":323,"o":"m 287 924 l 287 563 l 287 359 l 287 -2 l 82 -2 l 82 359 l 82 563 l 82 924 l 287 924 m 100 1211 l 46 1031 l 218 1031 l 323 1211 l 100 1211 z "},"Î":{"ha":490,"x_min":46,"x_max":444,"o":"m 347 924 l 347 563 l 347 359 l 347 -2 l 143 -2 l 143 359 l 143 563 l 143 924 l 347 924 m 292 1031 l 444 1031 l 245 1325 l 46 1031 l 199 1031 l 245 1099 l 292 1031 z "},"Ï":{"ha":437,"x_min":46,"x_max":391,"o":"m 320 924 l 320 563 l 320 359 l 320 -2 l 116 -2 l 116 359 l 116 563 l 116 924 l 320 924 m 46 1031 l 191 1031 l 191 1202 l 46 1202 l 46 1031 m 246 1031 l 391 1031 l 391 1202 l 246 1202 l 246 1031 z "},"Ð":{"ha":1094,"x_min":46,"x_max":1048,"o":"m 844 494 q 825 581 844 540 q 777 653 807 622 q 705 701 746 683 q 618 719 664 719 l 392 719 l 392 563 l 542 563 l 542 359 l 392 359 l 392 203 l 618 203 q 705 221 664 203 q 777 269 746 239 q 825 341 807 300 q 844 429 844 382 l 844 461 l 844 494 m 187 924 l 392 924 l 618 924 q 785 890 706 924 q 922 798 863 856 q 1014 661 981 739 q 1048 494 1048 582 l 1048 461 l 1048 429 q 1014 262 1048 340 q 922 125 981 183 q 785 32 863 66 q 618 -2 706 -2 l 392 -2 l 187 -2 l 187 359 l 46 359 l 46 563 l 187 563 l 187 924 z "},"Ñ":{"ha":901,"x_min":46,"x_max":855,"o":"m 46 -9 l 46 654 l 46 917 l 251 751 l 450 589 l 650 427 l 650 924 l 855 924 l 855 261 l 855 -2 l 650 164 l 450 326 l 251 488 l 251 -9 l 46 -9 m 260 1031 l 405 1031 l 516 1093 l 473 1031 l 640 1031 l 640 1202 l 496 1202 l 385 1140 l 428 1202 l 260 1202 l 260 1031 z "},"Ò":{"ha":986,"x_min":46,"x_max":940,"o":"m 493 924 q 667 889 585 924 q 809 793 748 854 q 905 651 869 732 q 940 478 940 569 l 940 445 q 905 271 940 353 q 809 129 869 190 q 667 33 748 69 q 493 -2 585 -2 q 319 33 401 -2 q 177 129 238 69 q 81 271 117 190 q 46 445 46 353 l 46 478 q 81 651 46 569 q 177 793 117 732 q 319 889 238 854 q 493 924 401 924 m 355 1211 l 460 1031 l 631 1031 l 578 1211 l 355 1211 m 493 719 q 399 700 443 719 q 322 649 355 681 q 270 572 289 616 q 251 478 251 528 l 251 445 q 270 351 251 395 q 322 274 289 306 q 399 222 355 241 q 493 203 443 203 q 587 222 543 203 q 664 274 631 241 q 716 351 697 306 q 735 445 735 395 l 735 478 q 716 572 735 528 q 664 649 697 616 q 587 700 631 681 q 493 719 543 719 z "},"Ó":{"ha":986,"x_min":46,"x_max":940,"o":"m 493 924 q 667 889 585 924 q 809 793 748 854 q 905 651 869 732 q 940 478 940 569 l 940 445 q 905 271 940 353 q 809 129 869 190 q 667 33 748 69 q 493 -2 585 -2 q 319 33 401 -2 q 177 129 238 69 q 81 271 117 190 q 46 445 46 353 l 46 478 q 81 651 46 569 q 177 793 117 732 q 319 889 238 854 q 493 924 401 924 m 631 1211 l 526 1031 l 355 1031 l 408 1211 l 631 1211 m 493 719 q 399 700 443 719 q 322 649 355 681 q 270 572 289 616 q 251 478 251 528 l 251 445 q 270 351 251 395 q 322 274 289 306 q 399 222 355 241 q 493 203 443 203 q 587 222 543 203 q 664 274 631 241 q 716 351 697 306 q 735 445 735 395 l 735 478 q 716 572 735 528 q 664 649 697 616 q 587 700 631 681 q 493 719 543 719 z "},"Ô":{"ha":986,"x_min":46,"x_max":940,"o":"m 493 924 q 667 889 585 924 q 809 793 748 854 q 905 651 869 732 q 940 478 940 569 l 940 445 q 905 271 940 353 q 809 129 869 190 q 667 33 748 69 q 493 -2 585 -2 q 319 33 401 -2 q 177 129 238 69 q 81 271 117 190 q 46 445 46 353 l 46 478 q 81 651 46 569 q 177 793 117 732 q 319 889 238 854 q 493 924 401 924 m 493 1099 l 446 1031 l 294 1031 l 493 1325 l 692 1031 l 539 1031 l 493 1099 m 493 719 q 399 700 443 719 q 322 649 355 681 q 270 572 289 616 q 251 478 251 528 l 251 445 q 270 351 251 395 q 322 274 289 306 q 399 222 355 241 q 493 203 443 203 q 587 222 543 203 q 664 274 631 241 q 716 351 697 306 q 735 445 735 395 l 735 478 q 716 572 735 528 q 664 649 697 616 q 587 700 631 681 q 493 719 543 719 z "},"Õ":{"ha":986,"x_min":46,"x_max":940,"o":"m 494 924 q 667 889 585 924 q 809 793 748 854 q 905 651 869 732 q 940 478 940 569 l 940 445 q 905 271 940 353 q 809 129 869 190 q 667 33 748 69 q 494 -2 585 -2 q 319 33 401 -2 q 177 129 238 69 q 81 271 117 190 q 46 445 46 353 l 46 478 q 81 651 46 569 q 177 793 117 732 q 319 889 238 854 q 494 924 401 924 m 303 1202 l 469 1202 l 428 1140 l 539 1202 l 683 1202 l 683 1031 l 516 1031 l 558 1093 l 447 1031 l 303 1031 l 303 1202 m 494 719 q 400 700 444 719 q 322 649 356 681 q 270 572 289 616 q 251 478 251 528 l 251 445 q 270 351 251 395 q 322 274 289 306 q 400 222 356 241 q 494 203 444 203 q 588 222 544 203 q 664 274 631 241 q 716 351 697 306 q 735 445 735 395 l 735 478 q 716 572 735 528 q 664 649 697 616 q 588 700 631 681 q 494 719 544 719 z "},"Ö":{"ha":986,"x_min":46,"x_max":940,"o":"m 493 924 q 667 889 585 924 q 809 793 748 854 q 905 651 869 732 q 940 478 940 569 l 940 445 q 905 271 940 353 q 809 129 869 190 q 667 33 748 69 q 493 -2 585 -2 q 319 33 401 -2 q 177 129 238 69 q 81 271 117 190 q 46 445 46 353 l 46 478 q 81 651 46 569 q 177 793 117 732 q 319 889 238 854 q 493 924 401 924 m 321 1202 l 465 1202 l 465 1031 l 321 1031 l 321 1202 m 521 1202 l 665 1202 l 665 1031 l 521 1031 l 521 1202 m 493 719 q 399 700 443 719 q 322 649 355 681 q 270 572 289 616 q 251 478 251 528 l 251 445 q 270 351 251 395 q 322 274 289 306 q 399 222 355 241 q 493 203 443 203 q 587 222 543 203 q 664 274 631 241 q 716 351 697 306 q 735 445 735 395 l 735 478 q 716 572 735 528 q 664 649 697 616 q 587 700 631 681 q 493 719 543 719 z "},"×":{"ha":519,"x_min":23,"x_max":495,"o":"m 404 463 l 495 370 l 351 227 l 259 319 l 168 227 l 23 370 l 115 463 l 23 555 l 168 699 l 259 607 l 351 699 l 495 555 l 404 463 z "},"Ø":{"ha":986,"x_min":46,"x_max":940,"o":"m 494 926 q 577 918 537 926 l 613 1002 l 835 1002 l 763 834 q 892 680 844 772 q 940 479 940 588 l 940 446 q 905 273 940 355 q 809 131 869 192 q 667 35 748 70 q 494 0 585 0 q 451 2 472 0 q 409 7 431 4 l 374 -77 l 152 -77 l 223 91 q 94 245 142 153 q 46 446 46 337 l 46 479 q 81 653 46 571 q 177 795 117 734 q 319 891 238 856 q 494 926 401 926 m 493 721 q 399 702 443 721 q 322 650 355 683 q 270 573 289 617 q 251 479 251 529 l 251 446 q 266 362 251 402 q 308 290 281 322 l 454 630 l 493 721 m 494 204 q 588 223 544 204 q 664 275 631 242 q 716 352 697 308 q 735 446 735 396 l 735 479 q 720 563 735 523 q 678 635 705 603 l 642 550 l 494 204 z "},"Ù":{"ha":913,"x_min":46,"x_max":867,"o":"m 662 56 q 565 14 617 29 q 456 0 513 0 q 348 14 400 0 q 251 56 296 29 q 168 120 206 82 q 103 203 130 157 q 61 301 76 249 q 46 410 46 354 l 46 926 l 251 926 l 251 721 l 251 410 q 267 330 251 368 q 311 264 283 293 q 376 220 339 236 q 456 204 414 204 q 537 220 499 204 q 602 264 574 236 q 646 330 630 293 q 662 410 662 368 l 662 721 l 662 926 l 867 926 l 867 410 q 852 301 867 354 q 810 203 837 249 q 746 120 783 157 q 662 56 708 82 m 541 1212 l 594 1032 l 423 1032 l 319 1212 l 541 1212 z "},"Ú":{"ha":913,"x_min":46,"x_max":867,"o":"m 662 56 q 565 14 617 29 q 456 0 513 0 q 348 14 400 0 q 251 56 296 29 q 168 120 206 82 q 103 203 130 157 q 61 301 76 249 q 46 410 46 354 l 46 926 l 251 926 l 251 721 l 251 410 q 267 330 251 368 q 311 264 283 293 q 376 220 339 236 q 456 204 414 204 q 537 220 499 204 q 602 264 574 236 q 646 330 630 293 q 662 410 662 368 l 662 721 l 662 926 l 867 926 l 867 410 q 852 301 867 354 q 810 203 837 249 q 746 120 783 157 q 662 56 708 82 m 371 1212 l 319 1032 l 490 1032 l 594 1212 l 371 1212 z "},"Û":{"ha":913,"x_min":46,"x_max":867,"o":"m 662 56 q 565 14 617 29 q 456 0 513 0 q 348 14 400 0 q 251 56 296 29 q 168 120 206 82 q 103 203 130 157 q 61 301 76 249 q 46 410 46 354 l 46 926 l 251 926 l 251 721 l 251 410 q 267 330 251 368 q 311 264 283 293 q 376 220 339 236 q 456 204 414 204 q 537 220 499 204 q 602 264 574 236 q 646 330 630 293 q 662 410 662 368 l 662 721 l 662 926 l 867 926 l 867 410 q 852 301 867 354 q 810 203 837 249 q 746 120 783 157 q 662 56 708 82 m 503 1032 l 655 1032 l 456 1327 l 258 1032 l 410 1032 l 456 1101 l 503 1032 z "},"Ü":{"ha":912,"x_min":46,"x_max":866,"o":"m 662 56 q 564 14 616 29 q 456 0 512 0 q 348 14 400 0 q 250 56 296 29 q 167 120 205 82 q 102 203 129 157 q 61 301 76 249 q 46 410 46 354 l 46 926 l 250 926 l 250 721 l 250 410 q 266 330 250 368 q 311 264 282 293 q 376 220 339 236 q 456 204 414 204 q 536 220 498 204 q 601 264 573 236 q 646 330 630 293 q 662 410 662 368 l 662 721 l 662 926 l 866 926 l 866 410 q 851 301 866 354 q 809 203 836 249 q 745 120 782 157 q 662 56 707 82 m 283 1032 l 428 1032 l 428 1204 l 283 1204 l 283 1032 m 483 1032 l 628 1032 l 628 1204 l 483 1204 l 483 1032 z "},"Ý":{"ha":1024,"x_min":46,"x_max":978,"o":"m 46 926 l 293 926 l 512 600 l 731 926 l 978 926 l 615 386 l 615 0 l 512 0 l 410 0 l 410 386 l 46 926 m 428 1212 l 374 1032 l 545 1032 l 651 1212 l 428 1212 z "},"Þ":{"ha":771,"x_min":46,"x_max":725,"o":"m 250 745 l 443 745 q 552 723 501 745 q 642 663 604 701 q 703 573 681 624 q 725 463 725 521 q 703 353 725 405 q 642 263 681 302 q 552 203 604 225 q 443 181 501 181 l 250 181 l 250 0 l 46 0 l 46 181 l 46 745 l 46 926 l 250 926 l 250 745 m 443 384 q 498 407 475 384 q 521 463 521 431 q 498 518 521 495 q 443 541 475 541 l 250 541 l 250 384 l 443 384 z "},"ß":{"ha":954,"x_min":46,"x_max":907,"o":"m 250 565 l 250 360 l 250 204 l 250 0 l 46 0 l 46 360 l 46 463 l 46 565 l 46 926 l 250 926 l 581 926 q 690 904 639 926 q 780 843 742 881 q 841 752 819 804 q 863 643 863 701 q 852 565 863 603 q 838 525 846 544 q 818 489 829 506 q 830 476 824 482 q 842 463 836 469 q 896 360 880 419 q 907 282 907 324 q 885 173 907 224 q 825 83 863 121 q 735 22 786 44 q 625 0 683 0 l 328 0 l 328 204 l 625 204 q 680 227 657 204 q 703 282 703 250 q 680 338 703 315 q 625 360 657 360 l 581 360 l 328 360 l 402 565 l 581 565 q 636 588 613 565 q 659 643 659 610 q 636 698 659 675 q 581 721 613 721 l 250 721 l 250 565 z "},"à":{"ha":1056,"x_min":46,"x_max":1009,"o":"m 528 483 l 436 307 l 310 64 l 277 0 l 97 0 l 46 0 l 80 64 l 97 98 l 186 268 l 413 705 l 528 926 l 643 705 l 870 268 l 958 98 l 976 64 l 1009 0 l 958 0 l 780 0 l 746 64 l 444 64 l 519 268 l 640 268 l 528 483 m 613 1212 l 666 1032 l 494 1032 l 390 1212 l 613 1212 z "},"á":{"ha":1056,"x_min":46,"x_max":1009,"o":"m 528 483 l 436 307 l 309 64 l 276 0 l 97 0 l 46 0 l 80 64 l 97 98 l 185 268 l 413 705 l 528 926 l 644 705 l 870 268 l 958 98 l 976 64 l 1009 0 l 958 0 l 780 0 l 746 64 l 444 64 l 519 268 l 640 268 l 528 483 m 444 1212 l 390 1032 l 561 1032 l 666 1212 l 444 1212 z "},"â":{"ha":1056,"x_min":46,"x_max":1010,"o":"m 528 483 l 437 307 l 309 64 l 276 0 l 97 0 l 46 0 l 80 64 l 97 98 l 186 268 l 413 705 l 528 926 l 643 705 l 870 268 l 958 98 l 977 64 l 1010 0 l 958 0 l 780 0 l 746 64 l 444 64 l 519 268 l 640 268 l 528 483 m 574 1032 l 726 1032 l 528 1327 l 330 1032 l 481 1032 l 528 1101 l 574 1032 z "},"ã":{"ha":1056,"x_min":46,"x_max":1009,"o":"m 528 483 l 436 307 l 309 64 l 277 0 l 97 0 l 46 0 l 79 64 l 97 98 l 185 268 l 413 705 l 528 926 l 643 705 l 869 268 l 958 98 l 976 64 l 1009 0 l 958 0 l 780 0 l 746 64 l 444 64 l 519 268 l 640 268 l 528 483 m 338 1032 l 482 1032 l 594 1094 l 551 1032 l 718 1032 l 718 1204 l 573 1204 l 462 1142 l 505 1204 l 338 1204 l 338 1032 z "},"ä":{"ha":1056,"x_min":46,"x_max":1009,"o":"m 528 483 l 436 307 l 309 64 l 276 0 l 97 0 l 46 0 l 80 64 l 97 98 l 185 268 l 413 705 l 528 926 l 643 705 l 870 268 l 958 98 l 976 64 l 1009 0 l 958 0 l 780 0 l 746 64 l 444 64 l 519 268 l 640 268 l 528 483 m 356 1032 l 500 1032 l 500 1204 l 356 1204 l 356 1032 m 556 1032 l 700 1032 l 700 1204 l 556 1204 l 556 1032 z "},"å":{"ha":1056,"x_min":46,"x_max":1009,"o":"m 528 483 l 436 307 l 309 64 l 276 0 l 97 0 l 46 0 l 80 64 l 97 98 l 185 268 l 412 705 l 528 926 l 643 705 l 870 268 l 958 98 l 976 64 l 1009 0 l 958 0 l 780 0 l 746 64 l 444 64 l 519 268 l 640 268 l 528 483 m 528 1369 q 463 1356 494 1369 q 409 1320 431 1343 q 373 1267 386 1297 q 359 1201 359 1236 q 373 1135 359 1166 q 409 1081 386 1105 q 463 1045 431 1058 q 528 1032 494 1032 q 594 1045 563 1032 q 647 1081 624 1058 q 683 1135 669 1105 q 696 1201 696 1166 q 683 1267 696 1236 q 647 1320 669 1297 q 594 1356 624 1343 q 528 1369 563 1369 m 528 1249 q 563 1235 548 1249 q 577 1201 577 1221 q 563 1166 577 1181 q 528 1152 548 1152 q 493 1166 507 1152 q 479 1201 479 1181 q 493 1235 479 1221 q 528 1249 507 1249 z "},"æ":{"ha":1575,"x_min":46,"x_max":1529,"o":"m 779 360 l 779 463 l 779 565 l 779 721 l 779 740 l 478 268 l 350 64 l 306 0 l 97 0 l 46 0 l 636 926 l 779 926 l 858 926 l 1529 926 l 1529 721 l 983 721 l 983 565 l 1464 565 l 1464 360 l 983 360 l 983 204 l 1529 204 l 1529 0 l 1009 0 l 958 0 l 779 0 l 779 64 l 509 64 l 558 268 l 779 268 l 779 360 z "},"ç":{"ha":935,"x_min":46,"x_max":889,"o":"m 757 306 l 889 241 q 824 147 862 190 q 737 73 785 105 q 633 23 689 42 q 517 1 578 4 l 507 -33 q 569 -51 539 -38 q 619 -90 598 -65 q 645 -153 642 -119 q 631 -219 648 -187 q 563 -275 606 -259 q 475 -294 519 -292 q 465 -294 470 -294 q 456 -293 460 -294 q 399 -284 427 -292 q 347 -259 371 -276 q 310 -221 324 -244 q 291 -171 295 -199 l 289 -162 l 386 -162 l 389 -167 q 402 -181 394 -176 q 430 -193 415 -189 q 459 -197 445 -196 q 466 -198 463 -198 q 472 -198 469 -198 q 492 -197 481 -198 q 513 -192 503 -195 q 533 -184 524 -189 q 547 -170 543 -179 q 550 -161 550 -167 q 544 -150 549 -156 q 525 -136 537 -141 q 500 -129 513 -131 q 474 -127 487 -127 q 449 -128 460 -127 l 378 -136 l 419 6 q 331 30 372 13 q 250 72 289 47 q 139 174 186 114 q 69 306 93 233 q 46 446 46 372 l 46 463 l 46 479 q 69 619 46 553 q 139 752 93 693 q 250 854 186 812 q 364 907 303 888 q 493 926 426 926 q 617 908 557 926 q 727 859 676 891 q 820 782 779 827 q 889 684 861 738 l 757 619 l 706 594 q 690 619 700 606 q 605 694 656 666 q 493 721 554 721 q 380 694 431 721 q 295 619 329 666 q 262 554 274 590 q 250 479 250 519 l 250 463 l 250 446 q 262 371 250 407 q 295 306 274 335 q 380 231 329 259 q 493 204 431 204 q 605 231 554 204 q 690 306 656 259 q 698 318 694 311 q 706 331 702 324 l 757 306 z "},"è":{"ha":842,"x_min":46,"x_max":795,"o":"m 402 565 l 731 565 l 731 360 l 328 360 l 402 565 m 506 1212 l 559 1032 l 388 1032 l 283 1212 l 506 1212 m 250 360 l 250 204 l 795 204 l 795 0 l 46 0 l 46 204 l 46 360 l 46 463 l 46 565 l 46 721 l 46 926 l 795 926 l 795 721 l 250 721 l 250 565 l 250 360 z "},"é":{"ha":842,"x_min":46,"x_max":795,"o":"m 402 565 l 731 565 l 731 360 l 328 360 l 402 565 m 336 1212 l 282 1032 l 454 1032 l 559 1212 l 336 1212 m 250 360 l 250 204 l 795 204 l 795 0 l 46 0 l 46 204 l 46 360 l 46 463 l 46 565 l 46 721 l 46 926 l 795 926 l 795 721 l 250 721 l 250 565 l 250 360 z "},"ê":{"ha":842,"x_min":46,"x_max":795,"o":"m 402 565 l 731 565 l 731 360 l 327 360 l 402 565 m 467 1032 l 619 1032 l 420 1327 l 222 1032 l 375 1032 l 420 1101 l 467 1032 m 250 360 l 250 204 l 795 204 l 795 0 l 46 0 l 46 204 l 46 360 l 46 463 l 46 565 l 46 721 l 46 926 l 795 926 l 795 721 l 250 721 l 250 565 l 250 360 z "},"ë":{"ha":842,"x_min":46,"x_max":795,"o":"m 402 565 l 731 565 l 731 360 l 327 360 l 402 565 m 248 1032 l 393 1032 l 393 1204 l 248 1204 l 248 1032 m 448 1032 l 593 1032 l 593 1204 l 448 1204 l 448 1032 m 250 360 l 250 204 l 795 204 l 795 0 l 46 0 l 46 204 l 46 360 l 46 463 l 46 565 l 46 721 l 46 926 l 795 926 l 795 721 l 250 721 l 250 565 l 250 360 z "},"ì":{"ha":369,"x_min":46,"x_max":323,"o":"m 287 926 l 287 565 l 287 360 l 287 0 l 82 0 l 82 360 l 82 565 l 82 926 l 287 926 m 269 1212 l 323 1032 l 152 1032 l 46 1212 l 269 1212 z "},"í":{"ha":369,"x_min":46,"x_max":322,"o":"m 286 926 l 286 565 l 286 360 l 286 0 l 81 0 l 81 360 l 81 565 l 81 926 l 286 926 m 99 1212 l 46 1032 l 218 1032 l 322 1212 l 99 1212 z "},"î":{"ha":489,"x_min":46,"x_max":443,"o":"m 346 926 l 346 565 l 346 360 l 346 0 l 143 0 l 143 360 l 143 565 l 143 926 l 346 926 m 291 1032 l 443 1032 l 244 1327 l 46 1032 l 198 1032 l 244 1101 l 291 1032 z "},"ï":{"ha":436,"x_min":46,"x_max":390,"o":"m 320 926 l 320 565 l 320 360 l 320 0 l 116 0 l 116 360 l 116 565 l 116 926 l 320 926 m 46 1032 l 190 1032 l 190 1204 l 46 1204 l 46 1032 m 245 1032 l 390 1032 l 390 1204 l 245 1204 l 245 1032 z "},"ð":{"ha":870,"x_min":46,"x_max":824,"o":"m 435 778 q 514 769 475 778 l 468 894 l 267 832 l 213 1007 l 405 1067 l 354 1204 l 549 1204 l 580 1120 l 761 1176 l 815 1001 l 644 948 l 797 531 q 800 524 799 527 q 803 517 801 520 l 803 515 q 824 389 824 454 q 794 238 824 308 q 710 114 763 167 q 587 31 657 61 q 435 0 516 0 q 284 31 355 0 q 160 114 213 61 q 77 238 107 167 q 46 389 46 308 q 77 540 46 469 q 160 664 107 611 q 284 747 213 717 q 435 778 355 778 m 630 456 l 627 463 q 597 516 616 492 q 553 557 578 540 q 498 585 528 575 q 435 594 468 594 q 355 578 393 594 q 290 534 318 562 q 246 469 262 506 q 230 389 230 431 q 246 309 230 346 q 290 243 262 271 q 355 199 318 215 q 435 182 393 182 q 515 199 478 182 q 581 243 553 215 q 625 309 608 271 q 641 389 641 346 q 638 424 641 406 q 630 456 634 441 z "},"ñ":{"ha":901,"x_min":46,"x_max":855,"o":"m 46 0 l 46 663 l 46 926 l 251 760 l 451 597 l 651 436 l 651 932 l 855 932 l 855 270 l 855 6 l 651 172 l 451 335 l 251 496 l 251 0 l 46 0 m 261 1032 l 406 1032 l 517 1094 l 474 1032 l 641 1032 l 641 1204 l 496 1204 l 385 1142 l 428 1204 l 261 1204 l 261 1032 z "},"ò":{"ha":986,"x_min":46,"x_max":940,"o":"m 493 927 q 667 892 585 927 q 809 796 748 856 q 905 654 869 735 q 940 481 940 572 l 940 448 q 905 275 940 356 q 809 133 869 194 q 667 37 748 72 q 493 2 585 2 q 319 37 401 2 q 177 133 238 72 q 81 275 117 194 q 46 448 46 356 l 46 481 q 81 654 46 572 q 177 796 117 735 q 319 892 238 856 q 493 927 401 927 m 355 1214 l 459 1034 l 631 1034 l 578 1214 l 355 1214 m 493 723 q 399 704 443 723 q 321 652 355 685 q 269 575 288 619 q 250 481 250 531 l 250 448 q 269 354 250 398 q 321 277 288 310 q 399 225 355 244 q 493 206 443 206 q 587 225 543 206 q 664 277 631 244 q 716 354 697 310 q 735 448 735 398 l 735 481 q 716 575 735 531 q 664 652 697 619 q 587 704 631 685 q 493 723 543 723 z "},"ó":{"ha":986,"x_min":46,"x_max":940,"o":"m 493 927 q 667 892 585 927 q 809 796 748 856 q 905 654 869 735 q 940 481 940 572 l 940 448 q 905 275 940 356 q 809 133 869 194 q 667 37 748 72 q 493 2 585 2 q 319 37 401 2 q 177 133 238 72 q 81 275 117 194 q 46 448 46 356 l 46 481 q 81 654 46 572 q 177 796 117 735 q 319 892 238 856 q 493 927 401 927 m 631 1214 l 526 1034 l 355 1034 l 408 1214 l 631 1214 m 493 723 q 399 704 443 723 q 322 652 355 685 q 270 575 289 619 q 251 481 251 531 l 251 448 q 270 354 251 398 q 322 277 289 310 q 399 225 355 244 q 493 206 443 206 q 587 225 543 206 q 664 277 631 244 q 716 354 697 310 q 735 448 735 398 l 735 481 q 716 575 735 531 q 664 652 697 619 q 587 704 631 685 q 493 723 543 723 z "},"ô":{"ha":986,"x_min":46,"x_max":940,"o":"m 493 927 q 667 892 585 927 q 809 796 748 856 q 905 654 869 735 q 940 481 940 572 l 940 448 q 905 275 940 356 q 809 133 869 194 q 667 37 748 72 q 493 2 585 2 q 319 37 401 2 q 177 133 238 72 q 81 275 117 194 q 46 448 46 356 l 46 481 q 81 654 46 572 q 177 796 117 735 q 319 892 238 856 q 493 927 401 927 m 493 1103 l 447 1034 l 294 1034 l 493 1329 l 691 1034 l 539 1034 l 493 1103 m 493 723 q 399 704 443 723 q 322 652 355 685 q 270 575 289 619 q 251 481 251 531 l 251 448 q 270 354 251 398 q 322 277 289 310 q 399 225 355 244 q 493 206 443 206 q 587 225 543 206 q 664 277 631 244 q 716 354 697 310 q 735 448 735 398 l 735 481 q 716 575 735 531 q 664 652 697 619 q 587 704 631 685 q 493 723 543 723 z "},"õ":{"ha":986,"x_min":46,"x_max":940,"o":"m 493 927 q 667 892 585 927 q 809 796 748 856 q 905 654 869 735 q 940 481 940 572 l 940 448 q 905 275 940 356 q 809 133 869 194 q 667 37 748 72 q 493 2 585 2 q 319 37 401 2 q 177 133 238 72 q 81 275 117 194 q 46 448 46 356 l 46 481 q 81 654 46 572 q 177 796 117 735 q 319 892 238 856 q 493 927 401 927 m 303 1206 l 470 1206 l 428 1144 l 538 1206 l 683 1206 l 683 1034 l 516 1034 l 558 1096 l 448 1034 l 303 1034 l 303 1206 m 493 723 q 399 704 443 723 q 322 652 355 685 q 269 575 289 619 q 250 481 250 531 l 250 448 q 269 354 250 398 q 322 277 289 310 q 399 225 355 244 q 493 206 443 206 q 587 225 543 206 q 664 277 631 244 q 716 354 697 310 q 735 448 735 398 l 735 481 q 716 575 735 531 q 664 652 697 619 q 587 704 631 685 q 493 723 543 723 z "},"ö":{"ha":986,"x_min":46,"x_max":940,"o":"m 494 927 q 667 892 585 927 q 809 796 748 856 q 905 654 869 735 q 940 481 940 572 l 940 448 q 905 275 940 356 q 809 133 869 194 q 667 37 748 72 q 494 2 585 2 q 319 37 401 2 q 177 133 238 72 q 81 275 117 194 q 46 448 46 356 l 46 481 q 81 654 46 572 q 177 796 117 735 q 319 892 238 856 q 494 927 401 927 m 321 1206 l 466 1206 l 466 1034 l 321 1034 l 321 1206 m 520 1206 l 665 1206 l 665 1034 l 520 1034 l 520 1206 m 494 723 q 400 704 444 723 q 322 652 356 685 q 270 575 289 619 q 251 481 251 531 l 251 448 q 270 354 251 398 q 322 277 289 310 q 400 225 356 244 q 494 206 444 206 q 588 225 544 206 q 664 277 631 244 q 716 354 697 310 q 735 448 735 398 l 735 481 q 716 575 735 531 q 664 652 697 619 q 588 704 631 685 q 494 723 544 723 z "},"÷":{"ha":510,"x_min":23,"x_max":487,"o":"m 23 567 l 487 567 l 487 362 l 23 362 l 23 567 m 256 866 q 298 857 278 866 q 332 833 318 848 q 356 799 347 819 q 364 756 364 779 q 356 714 364 734 q 332 680 347 694 q 298 657 318 666 q 256 648 278 648 q 213 657 233 648 q 179 680 194 666 q 156 714 164 694 q 147 756 147 734 q 156 799 147 779 q 179 833 164 819 q 213 857 194 848 q 256 866 233 866 m 256 281 q 298 272 278 281 q 332 249 318 264 q 356 214 347 234 q 364 172 364 194 q 356 130 364 150 q 332 95 347 110 q 298 72 318 81 q 256 63 278 63 q 213 72 233 63 q 179 95 194 81 q 156 130 164 110 q 147 172 147 150 q 156 214 147 194 q 179 249 164 234 q 213 272 194 264 q 256 281 233 281 z "},"ø":{"ha":986,"x_min":46,"x_max":940,"o":"m 493 927 q 576 919 533 927 l 612 1004 l 834 1004 l 763 836 q 892 682 844 775 q 940 481 940 590 l 940 448 q 905 275 940 356 q 809 133 869 194 q 667 37 748 72 q 493 2 585 2 q 451 4 471 2 q 409 9 431 6 l 373 -75 l 152 -75 l 223 93 q 94 247 142 155 q 46 448 46 339 l 46 481 q 81 654 46 572 q 177 796 117 735 q 319 892 238 856 q 493 927 401 927 m 493 723 q 399 704 443 723 q 321 651 355 684 q 269 575 288 619 q 250 481 250 531 l 250 448 q 266 364 250 404 q 308 292 281 324 l 454 632 l 493 723 m 494 206 q 588 225 544 206 q 664 277 631 244 q 716 354 697 310 q 735 448 735 398 l 735 481 q 720 565 735 525 q 678 637 705 605 l 642 552 l 494 206 z "},"ù":{"ha":912,"x_min":46,"x_max":866,"o":"m 662 57 q 564 16 616 31 q 456 2 512 2 q 348 16 399 2 q 250 57 296 31 q 167 122 205 84 q 103 205 130 159 q 61 302 76 250 q 46 411 46 355 l 46 927 l 250 927 l 250 723 l 250 411 q 266 332 250 369 q 311 266 282 294 q 376 222 339 238 q 456 206 414 206 q 536 222 498 206 q 601 266 573 238 q 646 332 630 294 q 662 411 662 369 l 662 723 l 662 927 l 866 927 l 866 411 q 851 302 866 355 q 809 205 836 250 q 745 122 782 159 q 662 57 707 84 m 541 1214 l 594 1034 l 422 1034 l 318 1214 l 541 1214 z "},"ú":{"ha":912,"x_min":46,"x_max":866,"o":"m 662 57 q 564 16 616 31 q 456 2 512 2 q 348 16 400 2 q 250 57 296 31 q 167 122 205 84 q 103 205 130 159 q 61 302 76 250 q 46 411 46 355 l 46 927 l 250 927 l 250 723 l 250 411 q 266 332 250 369 q 311 266 282 294 q 376 222 339 238 q 456 206 414 206 q 536 222 498 206 q 601 266 573 238 q 646 332 630 294 q 662 411 662 369 l 662 723 l 662 927 l 866 927 l 866 411 q 851 302 866 355 q 809 205 836 250 q 745 122 782 159 q 662 57 707 84 m 371 1214 l 318 1034 l 489 1034 l 594 1214 l 371 1214 z "},"û":{"ha":912,"x_min":46,"x_max":866,"o":"m 662 57 q 564 16 616 31 q 456 2 512 2 q 348 16 400 2 q 250 57 296 31 q 167 122 205 84 q 103 205 130 159 q 61 302 76 250 q 46 411 46 355 l 46 927 l 250 927 l 250 723 l 250 411 q 266 332 250 369 q 311 266 282 294 q 376 222 339 238 q 456 206 414 206 q 536 222 498 206 q 601 266 573 238 q 646 332 630 294 q 662 411 662 369 l 662 723 l 662 927 l 866 927 l 866 411 q 851 302 866 355 q 810 205 836 250 q 746 122 783 159 q 662 57 708 84 m 503 1034 l 655 1034 l 456 1329 l 257 1034 l 410 1034 l 456 1103 l 503 1034 z "},"ü":{"ha":912,"x_min":46,"x_max":866,"o":"m 662 57 q 565 16 617 31 q 456 2 513 2 q 348 16 400 2 q 251 57 296 31 q 168 122 206 84 q 103 205 130 159 q 61 302 76 250 q 46 411 46 355 l 46 927 l 251 927 l 251 723 l 251 411 q 267 332 251 369 q 311 266 283 294 q 376 222 339 238 q 456 206 414 206 q 536 222 498 206 q 601 266 573 238 q 646 332 630 294 q 662 411 662 369 l 662 723 l 662 927 l 866 927 l 866 411 q 851 302 866 355 q 809 205 836 250 q 745 122 782 159 q 662 57 707 84 m 284 1034 l 429 1034 l 429 1206 l 284 1206 l 284 1034 m 484 1034 l 629 1034 l 629 1206 l 484 1206 l 484 1034 z "},"ý":{"ha":1023,"x_min":46,"x_max":977,"o":"m 46 927 l 293 927 l 512 602 l 731 927 l 977 927 l 614 388 l 614 2 l 512 2 l 409 2 l 409 388 l 46 927 m 427 1214 l 373 1034 l 544 1034 l 650 1214 l 427 1214 z "},"þ":{"ha":771,"x_min":46,"x_max":725,"o":"m 250 745 l 443 745 q 552 723 501 745 q 642 663 604 701 q 703 573 681 624 q 725 463 725 521 q 703 353 725 405 q 642 263 681 302 q 552 203 604 225 q 443 181 501 181 l 250 181 l 250 0 l 46 0 l 46 181 l 46 745 l 46 926 l 250 926 l 250 745 m 443 384 q 498 407 475 384 q 521 463 521 431 q 498 518 521 495 q 443 541 475 541 l 250 541 l 250 384 l 443 384 z "},"ÿ":{"ha":1023,"x_min":46,"x_max":977,"o":"m 46 927 l 293 927 l 512 602 l 731 927 l 977 927 l 614 388 l 614 2 l 512 2 l 410 2 l 410 388 l 46 927 m 340 1034 l 484 1034 l 484 1206 l 340 1206 l 340 1034 m 540 1034 l 684 1034 l 684 1206 l 540 1206 l 540 1034 z "},"ı":{"ha":230,"x_min":23,"x_max":206,"o":"m 88 466 l 23 419 l 23 566 l 206 699 l 206 230 l 88 230 l 88 466 z "},"Ÿ":{"ha":1024,"x_min":46,"x_max":978,"o":"m 46 926 l 293 926 l 512 600 l 731 926 l 978 926 l 615 386 l 615 0 l 512 0 l 410 0 l 410 386 l 46 926 m 344 1034 l 488 1034 l 488 1206 l 344 1206 l 344 1034 m 544 1034 l 688 1034 l 688 1206 l 544 1206 l 544 1034 z "},"ˆ":{"ha":557,"x_min":23,"x_max":534,"o":"m 217 548 l 23 548 l 279 927 l 534 548 l 341 548 l 279 641 l 217 548 z "},"ˇ":{"ha":557,"x_min":23,"x_max":534,"o":"m 279 834 l 341 927 l 534 927 l 279 548 l 23 927 l 216 927 l 279 834 z "},"ˉ":{"ha":505,"x_min":23,"x_max":481,"o":"m 23 840 l 481 840 l 481 635 l 23 635 l 23 840 z "},"˘":{"ha":682,"x_min":23,"x_max":659,"o":"m 228 752 l 456 752 l 456 881 l 659 881 l 659 548 l 481 548 l 456 548 l 228 548 l 23 548 l 23 752 l 23 881 l 228 881 l 228 752 z "},"˙":{"ha":251,"x_min":23,"x_max":228,"o":"m 126 635 q 86 644 105 635 q 54 666 68 652 q 31 698 40 680 q 23 738 23 717 q 31 778 23 759 q 54 810 40 796 q 86 832 68 824 q 126 840 105 840 q 166 832 147 840 q 198 810 184 824 q 220 778 212 796 q 228 738 228 759 q 220 698 228 717 q 198 666 212 680 q 166 644 184 652 q 126 635 147 635 z "},"˚":{"ha":382,"x_min":23,"x_max":359,"o":"m 192 906 q 257 893 227 906 q 310 856 287 880 q 346 803 333 833 q 359 738 359 773 q 346 672 359 703 q 310 619 333 642 q 257 582 287 595 q 192 569 227 569 q 126 582 156 569 q 72 619 95 595 q 36 672 49 642 q 23 738 23 703 q 36 803 23 773 q 72 856 49 833 q 126 893 95 880 q 192 906 156 906 m 192 787 q 157 773 171 787 q 143 738 143 758 q 157 703 143 718 q 192 689 171 689 q 226 703 212 689 q 240 738 240 718 q 226 773 240 758 q 192 787 212 787 z "},"˛":{"ha":405,"x_min":20,"x_max":380,"o":"m 161 259 l 139 335 l 239 335 l 291 156 l 219 165 q 195 166 208 166 q 169 164 181 167 q 144 157 156 162 q 124 143 131 152 q 119 131 120 137 q 121 122 119 127 q 135 109 126 114 q 155 100 144 104 q 177 96 166 97 q 196 94 188 94 q 209 95 205 94 q 239 100 223 96 q 267 111 255 104 q 281 126 276 119 l 282 131 l 380 131 l 378 121 q 320 32 369 68 q 269 9 297 17 q 214 -1 242 1 l 194 -1 q 149 4 171 0 q 106 17 127 8 q 68 40 85 26 q 38 74 50 54 q 23 140 20 105 q 50 203 27 174 q 100 241 70 228 q 161 259 129 255 z "},"˜":{"ha":627,"x_min":23,"x_max":604,"o":"m 23 809 l 279 809 l 214 715 l 383 809 l 604 809 l 604 548 l 349 548 l 413 643 l 244 548 l 23 548 l 23 809 z "},"˝":{"ha":572,"x_min":23,"x_max":549,"o":"m 23 809 l 244 809 l 244 548 l 23 548 l 23 809 m 329 809 l 549 809 l 549 548 l 329 548 l 329 809 z "},"–":{"ha":745,"x_min":23,"x_max":722,"o":"m 23 567 l 722 567 l 722 362 l 23 362 l 23 567 z "},"—":{"ha":995,"x_min":23,"x_max":972,"o":"m 23 567 l 972 567 l 972 362 l 23 362 l 23 567 z "},"‘":{"ha":233,"x_min":25,"x_max":210,"o":"m 210 744 l 26 744 q 32 829 25 795 q 53 882 40 862 q 83 912 66 903 q 122 925 101 921 q 165 927 143 928 q 210 926 188 927 l 142 841 l 210 841 l 210 744 z "},"’":{"ha":233,"x_min":23,"x_max":207,"o":"m 23 927 l 206 927 q 200 844 207 877 q 181 790 194 810 q 150 760 168 769 q 112 748 132 751 q 68 745 91 744 q 23 746 45 746 l 91 831 l 23 831 l 23 927 z "},"‚":{"ha":233,"x_min":23,"x_max":208,"o":"m 23 184 l 207 184 q 193 70 208 108 q 150 17 177 32 q 90 2 124 2 q 23 3 56 2 l 92 88 l 23 88 l 23 184 z "},"“":{"ha":460,"x_min":26,"x_max":437,"o":"m 210 744 l 27 744 q 33 829 26 795 q 53 882 40 862 q 84 912 66 903 q 122 925 102 921 q 165 927 143 928 q 210 926 188 927 l 143 841 l 210 841 l 210 744 m 437 744 l 254 744 q 260 829 253 795 q 280 882 267 862 q 310 912 293 903 q 349 925 328 921 q 392 927 369 928 q 437 926 415 927 l 369 841 l 437 841 l 437 744 z "},"”":{"ha":460,"x_min":23,"x_max":434,"o":"m 250 927 l 433 927 q 427 844 434 877 q 407 790 420 810 q 377 760 394 769 q 338 748 359 751 q 295 745 318 744 q 250 746 272 746 l 319 831 l 250 831 l 250 927 m 23 927 l 206 927 q 200 844 207 877 q 181 790 194 810 q 150 760 168 769 q 112 748 132 751 q 68 745 91 744 q 23 746 45 746 l 91 831 l 23 831 l 23 927 z "},"„":{"ha":460,"x_min":23,"x_max":434,"o":"m 250 184 l 433 184 q 427 101 434 134 q 407 47 420 68 q 376 17 394 27 q 338 4 358 7 q 295 2 318 1 q 250 3 272 3 l 318 88 l 250 88 l 250 184 m 23 184 l 206 184 q 192 70 208 108 q 150 17 176 32 q 90 2 123 2 q 23 3 56 2 l 91 88 l 23 88 l 23 184 z "},"†":{"ha":647,"x_min":23,"x_max":624,"o":"m 23 718 l 200 718 l 200 675 l 275 675 l 275 751 l 233 751 l 233 927 l 414 927 l 414 751 l 372 751 l 372 675 l 447 675 l 447 718 l 624 718 l 624 536 l 447 536 l 447 579 l 372 579 l 372 503 l 414 503 l 414 326 l 321 35 l 233 326 l 233 503 l 275 503 l 275 579 l 200 579 l 200 536 l 23 536 l 23 718 z "},"‡":{"ha":648,"x_min":23,"x_max":625,"o":"m 23 718 l 200 718 l 200 675 l 276 675 l 276 751 l 233 751 l 233 927 l 414 927 l 414 751 l 372 751 l 372 675 l 447 675 l 447 718 l 625 718 l 625 536 l 447 536 l 447 579 l 372 579 l 372 503 l 414 503 l 414 326 l 372 326 l 372 251 l 447 251 l 447 293 l 625 293 l 625 112 l 447 112 l 447 154 l 372 154 l 372 79 l 414 79 l 414 -98 l 233 -98 l 233 79 l 276 79 l 276 154 l 200 154 l 200 112 l 23 112 l 23 293 l 200 293 l 200 251 l 276 251 l 276 326 l 233 326 l 233 503 l 276 503 l 276 579 l 200 579 l 200 536 l 23 536 l 23 718 z "},"•":{"ha":251,"x_min":23,"x_max":228,"o":"m 126 723 q 86 731 105 723 q 54 753 68 739 q 31 785 40 767 q 23 825 23 804 q 31 865 23 846 q 54 897 40 883 q 86 919 68 911 q 126 927 105 927 q 166 919 147 927 q 198 897 184 911 q 220 865 212 883 q 228 825 228 846 q 220 785 228 804 q 198 753 212 767 q 166 731 184 739 q 126 723 147 723 z "},"…":{"ha":786,"x_min":23,"x_max":763,"o":"m 126 206 q 166 198 147 206 q 198 176 184 190 q 220 144 212 162 q 228 104 228 125 q 220 64 228 82 q 198 31 212 45 q 166 10 184 18 q 126 2 147 2 q 86 10 105 2 q 54 31 68 18 q 31 64 40 45 q 23 104 23 82 q 31 144 23 125 q 54 176 40 162 q 86 198 68 190 q 126 206 105 206 m 661 206 q 701 198 682 206 q 733 176 719 190 q 755 144 747 162 q 763 104 763 125 q 755 64 763 82 q 733 31 747 45 q 701 10 719 18 q 661 2 682 2 q 621 10 640 2 q 589 31 603 18 q 567 64 575 45 q 558 104 558 82 q 567 144 558 125 q 589 176 575 162 q 621 198 603 190 q 661 206 640 206 m 394 206 q 433 198 415 206 q 466 176 452 190 q 488 144 480 162 q 495 104 495 125 q 488 64 495 82 q 466 31 480 45 q 433 10 452 18 q 394 2 415 2 q 354 10 372 2 q 321 31 335 18 q 299 64 307 45 q 291 104 291 82 q 299 144 291 125 q 321 176 307 162 q 354 198 335 190 q 394 206 372 206 z "},"‹":{"ha":426,"x_min":23,"x_max":403,"o":"m 310 465 l 403 402 l 403 209 l 23 465 l 403 720 l 403 527 l 310 465 z "},"›":{"ha":426,"x_min":23,"x_max":403,"o":"m 23 527 l 23 720 l 403 465 l 23 209 l 23 402 l 116 465 l 23 527 z "},"⁄":{"ha":847,"x_min":23,"x_max":824,"o":"m 824 933 l 262 7 l 23 7 l 585 933 l 824 933 z "},"∕":{"ha":847,"x_min":23,"x_max":824,"o":"m 824 933 l 262 7 l 23 7 l 585 933 l 824 933 z "},"₣":{"ha":941,"x_min":23,"x_max":918,"o":"m 372 331 l 504 331 l 504 128 l 372 128 l 372 7 l 169 7 l 169 128 l 23 128 l 23 331 l 169 331 l 169 369 l 169 470 l 169 572 l 169 729 l 169 933 l 918 933 l 918 729 l 372 729 l 372 572 l 853 572 l 853 369 l 372 369 l 372 331 z "},"₤":{"ha":907,"x_min":23,"x_max":884,"o":"m 884 7 l 23 7 l 111 212 l 145 293 l 57 293 l 57 445 l 211 445 l 221 470 l 211 494 l 57 494 l 57 648 l 145 648 l 111 729 l 23 933 l 245 933 l 884 933 l 884 729 l 332 729 l 370 648 l 564 648 l 564 494 l 441 494 l 454 468 l 444 445 l 564 445 l 564 293 l 371 293 l 332 212 l 884 212 l 884 7 z "},"₧":{"ha":2194,"x_min":23,"x_max":2171,"o":"m 294 933 l 544 933 l 672 933 l 980 933 l 1184 933 l 1492 933 l 1675 933 l 1888 933 q 1994 913 1944 933 q 2083 855 2044 892 q 2144 770 2121 819 q 2170 666 2168 721 l 1966 666 q 1938 711 1960 693 q 1888 729 1917 729 l 1593 729 q 1562 723 1576 729 q 1537 706 1547 717 q 1520 681 1526 695 q 1514 651 1514 667 q 1537 595 1514 619 q 1593 572 1560 572 l 1814 572 l 1888 572 q 2010 545 1954 572 q 2106 470 2067 518 q 2138 422 2124 448 q 2160 369 2152 396 q 2168 330 2165 350 q 2171 290 2171 310 q 2149 180 2171 231 q 2088 90 2127 129 q 1998 30 2049 52 q 1888 7 1946 7 l 1593 7 q 1514 19 1552 7 q 1435 55 1471 31 q 1372 113 1399 80 q 1329 188 1345 147 q 1310 275 1313 230 l 1514 275 l 1516 275 q 1542 230 1520 248 q 1593 212 1564 212 l 1888 212 q 1919 218 1905 212 q 1944 235 1933 224 q 1961 260 1955 245 q 1967 290 1967 274 q 1944 345 1967 322 q 1888 369 1920 369 l 1646 369 l 1593 369 q 1514 380 1552 369 q 1438 415 1472 392 q 1376 470 1403 438 q 1343 518 1357 493 q 1321 572 1329 544 q 1310 651 1310 610 q 1321 729 1310 692 l 1184 729 l 1184 7 l 980 7 l 980 729 l 832 729 q 851 626 851 679 q 826 506 851 562 q 760 408 802 450 q 663 342 719 367 q 544 318 606 318 l 228 318 l 228 7 l 23 7 l 23 318 l 23 933 l 228 933 l 294 933 m 544 522 q 583 531 565 522 q 616 553 602 539 q 638 586 630 567 q 646 626 646 605 q 638 666 646 647 q 616 698 630 684 q 583 720 602 712 q 544 729 565 729 l 294 729 l 228 729 l 228 522 l 544 522 z "},"€":{"ha":931,"x_min":23,"x_max":908,"o":"m 908 7 l 378 7 l 173 7 l 173 293 l 23 293 l 23 445 l 173 445 l 173 494 l 23 494 l 23 648 l 173 648 l 173 933 l 378 933 l 395 933 l 908 933 l 908 729 l 482 729 l 378 729 l 378 648 l 530 648 l 530 494 l 378 494 l 378 445 l 530 445 l 530 293 l 378 293 l 378 212 l 482 212 l 908 212 l 908 7 z "},"№":{"ha":1442,"x_min":23,"x_max":1419,"o":"m 23 0 l 23 663 l 23 926 l 228 760 l 427 598 l 627 436 l 627 933 l 831 933 l 831 270 l 831 7 l 627 173 l 427 335 l 228 497 l 228 0 l 23 0 m 945 205 l 945 0 l 1419 0 l 1419 205 l 945 205 m 1181 762 q 1090 744 1133 762 q 1015 693 1047 725 q 965 619 983 661 q 946 527 946 576 l 946 513 q 965 422 946 465 q 1015 347 983 379 q 1090 296 1047 315 q 1181 278 1133 278 q 1273 296 1231 278 q 1348 347 1316 315 q 1398 422 1380 379 q 1417 513 1417 465 l 1417 527 q 1398 619 1417 576 q 1348 693 1380 661 q 1273 744 1316 725 q 1181 762 1231 762 m 1181 589 q 1225 571 1207 589 q 1244 527 1244 553 l 1244 513 q 1225 470 1244 488 q 1181 452 1207 452 q 1138 470 1156 452 q 1120 513 1120 488 l 1120 527 q 1138 571 1120 553 q 1181 589 1156 589 z "},"™":{"ha":855,"x_min":23,"x_max":831,"o":"m 146 799 l 23 799 l 23 933 l 404 933 l 404 799 l 281 799 l 281 511 l 146 511 l 146 799 m 588 785 l 719 933 l 831 511 l 693 511 l 657 644 l 588 540 l 519 644 l 484 511 l 345 511 l 456 933 l 588 785 z "},"∂":{"ha":824,"x_min":23,"x_max":801,"o":"m 412 778 q 491 769 454 778 l 331 1204 l 526 1204 l 774 531 q 777 525 776 528 q 780 517 778 521 l 780 516 q 801 389 801 455 q 770 238 801 308 q 687 114 740 167 q 563 31 634 61 q 412 0 493 0 q 261 31 331 0 q 137 114 190 61 q 54 238 84 167 q 23 389 23 308 q 54 540 23 469 q 137 664 84 611 q 261 747 190 717 q 412 778 331 778 m 606 457 l 604 464 q 574 517 593 493 q 530 558 555 541 q 475 585 505 575 q 412 594 444 594 q 332 578 369 594 q 267 534 294 562 q 223 469 239 506 q 206 389 206 431 q 223 309 206 346 q 267 244 239 271 q 332 200 294 216 q 412 183 369 183 q 492 200 455 183 q 557 244 530 216 q 601 309 585 271 q 618 389 618 346 q 606 457 618 427 z "},"∆":{"ha":1170,"x_min":23,"x_max":1147,"o":"m 585 933 l 727 701 l 1147 7 l 969 7 l 908 7 l 176 7 l 23 7 l 466 736 l 585 933 m 785 212 l 542 612 l 299 212 l 785 212 z "},"∏":{"ha":821,"x_min":23,"x_max":798,"o":"m 23 722 l 23 926 l 141 926 l 345 926 l 476 926 l 681 926 l 798 926 l 798 722 l 681 722 l 681 565 l 681 361 l 681 0 l 476 0 l 476 361 l 476 565 l 476 722 l 345 722 l 345 565 l 345 361 l 345 0 l 141 0 l 141 361 l 141 565 l 141 722 l 23 722 z "},"∑":{"ha":907,"x_min":23,"x_max":884,"o":"m 884 0 l 23 0 l 111 205 l 178 361 l 219 460 l 111 722 l 23 926 l 245 926 l 884 926 l 884 616 l 715 722 l 332 722 l 427 521 l 247 143 l 756 143 l 884 234 l 884 0 z "},"−":{"ha":908,"x_min":23,"x_max":885,"o":"m 23 565 l 885 565 l 885 361 l 23 361 l 23 565 z "},"√":{"ha":994,"x_min":23,"x_max":970,"o":"m 931 933 l 970 933 l 970 729 l 806 729 l 368 7 l 129 7 l 23 142 l 140 333 l 246 201 l 692 933 l 931 933 z "},"∞":{"ha":1056,"x_min":23,"x_max":1033,"o":"m 719 785 q 842 760 784 785 q 942 693 899 735 q 1009 593 984 650 q 1033 470 1033 535 q 1009 348 1033 406 q 942 248 984 291 q 842 180 899 205 q 719 156 784 156 q 638 166 677 156 q 564 197 598 177 q 501 244 530 217 q 452 305 473 271 q 371 246 418 268 q 269 224 324 224 q 174 244 219 224 q 95 296 129 263 q 43 375 62 330 q 23 470 23 419 q 43 566 23 521 q 95 644 62 611 q 174 697 129 678 q 269 717 219 717 q 371 695 324 717 q 452 636 418 673 q 501 697 473 669 q 564 744 530 724 q 638 775 598 764 q 719 785 677 785 m 269 548 q 214 525 237 548 q 192 470 192 503 q 214 415 192 438 q 269 393 237 393 q 325 415 302 393 q 347 470 347 438 q 325 525 347 503 q 269 548 302 548 m 719 606 q 667 595 692 606 q 623 566 642 584 q 594 523 605 547 q 583 470 583 498 q 594 418 583 443 q 623 375 605 393 q 667 346 642 356 q 719 335 692 335 q 772 346 747 335 q 815 375 796 356 q 844 418 833 393 q 855 470 855 443 q 844 523 855 498 q 815 566 833 547 q 772 595 796 584 q 719 606 747 606 z "},"∫":{"ha":1060,"x_min":23,"x_max":1037,"o":"m 692 933 l 931 933 l 1037 799 l 920 607 l 813 740 l 650 470 l 369 7 l 130 7 l 23 142 l 140 333 l 247 201 l 410 470 l 692 933 z "},"≈":{"ha":690,"x_min":23,"x_max":667,"o":"m 23 704 l 306 704 l 234 630 l 422 704 l 667 704 l 667 499 l 384 499 l 456 574 l 269 499 l 23 499 l 23 704 m 23 430 l 306 430 l 234 355 l 422 430 l 667 430 l 667 225 l 384 225 l 456 299 l 269 225 l 23 225 l 23 430 z "},"≤":{"ha":492,"x_min":23,"x_max":469,"o":"m 360 617 l 469 543 l 469 316 l 23 617 l 469 917 l 469 690 l 360 617 m 23 232 l 469 232 l 469 25 l 23 25 l 23 232 z "},"≥":{"ha":493,"x_min":23,"x_max":469,"o":"m 23 690 l 23 917 l 469 617 l 23 316 l 23 543 l 132 617 l 23 690 m 469 25 l 23 25 l 23 232 l 469 232 l 469 25 z "}}}
